<?xml version="1.0" encoding="utf-8"?>
<svg viewBox="0 0 200 170" xmlns="http://www.w3.org/2000/svg">
  <defs>
    <style>.a{fill:none;}.b{clip-path:url(#a);}.c{fill:#051d30;}.d{fill:#e6e6e6;}.e{fill:#f8648c;}.f{fill:#5aedc5;}</style>
    <clipPath id="a">
      <path class="a" d="M-1911-219c-6.12,0-11.69-5-11.69-11.13s5-11.12,11.69-11.12,11.68,5,11.68,11.12S-1904.89-219-1911-219Zm143.52-60.64c-1.11-8.9-6.67-16.13-13.9-21.69l-2.78-2.23-2.23,2.78c-4.45,5-6.12,13.91-5.56,20.59a29.86,29.86,0,0,0,5,13.9c-2.22,1.12-5,2.23-7.23,3.34a46.83,46.83,0,0,1-15,2.23h-144.08l-.56,3.34a62.58,62.58,0,0,0,5,31.7l2.22,3.9v.56C-1933.27-199-1909.34-189-1883.2-189c50.07,0,91.24-21.69,110.71-68.42,12.79.55,25.59-2.79,31.71-15l1.67-2.78-2.79-1.67c-7.23-4.45-17.24-5-25.59-2.78Zm-71.76-8.9h-21.7v21.7h21.7Zm0-27.26h-21.7v21.7h21.7Zm0-27.81h-21.7V-322h21.7Zm26.7,55.07h-21.69v21.7h21.69Zm-80.66,0h-21.7v21.7h21.7v-21.7Zm27.26,0h-21.7v21.7h21.7Zm-54,0h-21.7v21.7h21.7v-21.7Zm54-27.26h-21.7v21.7h21.7Zm-27.26,0h-21.7v21.7h21.7v-21.7Z"/>
    </clipPath>
  </defs>
  <title>icon-private-services</title>
  <g class="b">
    <path class="c" d="M-2230.89-469.38H4860.94V372.87H-2230.89Z"/>
  </g>
  <path class="d" d="M142.7,31.65h-6.3A38.76,38.76,0,0,0,98.31,0h0A38.76,38.76,0,0,0,59.55,38.76h0c0,.23,0,.46,0,.7H53.4A19.28,19.28,0,0,0,34.12,58.74h0A19.28,19.28,0,0,0,53.4,78h89.3a23.18,23.18,0,0,0,23.18-23.18h0A23.18,23.18,0,0,0,142.7,31.65Z"/>
  <path class="e" d="M73.11,102.87a6.78,6.78,0,0,1-6.78-6.78V69.72A19.64,19.64,0,0,1,86,50.11h9.77a6.77,6.77,0,1,1,0,13.54H86a6.08,6.08,0,0,0-6.07,6.07V96.1A6.77,6.77,0,0,1,73.11,102.87Z" style="fill: rgb(235, 69, 158);"/>
  <rect class="e" x="113.76" y="81.31" width="13.55" height="14.79" style="fill: rgb(235, 69, 158);"/>
  <path class="f" d="M128.23,96.1h-62a12.56,12.56,0,0,0-12.56,12.56v17.75A43.59,43.59,0,0,0,97.2,170h0a43.58,43.58,0,0,0,43.58-43.59h0V108.66A12.55,12.55,0,0,0,128.23,96.1Zm-20.72,50.2a4.35,4.35,0,0,1-4.21,5.54H91.11a4.37,4.37,0,0,1-4.37-4.36,4.26,4.26,0,0,1,.17-1.18l4.26-15.18a10.47,10.47,0,1,1,12.08,0Z" style="fill: rgb(87, 242, 135);"/>
</svg>