<?xml version="1.0" encoding="utf-8"?>
<svg viewBox="0 0 200 109.43" xmlns="http://www.w3.org/2000/svg">
  <defs>
    <style>.a{fill:none;}.b{clip-path:url(#a);}.c{fill:#051d30;}.d{fill:#4f65f1;}.e{fill:#f8648c;}.f{fill:#ffda5d;}.g{fill:#5aedc5;}</style>
    <clipPath id="a">
      <path class="a" d="M-2445-249.33c-6.12,0-11.69-5-11.69-11.12s5-11.13,11.69-11.13,11.68,5,11.68,11.13-5.56,11.12-11.68,11.12ZM-2301.5-310c-1.12-8.91-6.68-16.14-13.91-21.7l-2.78-2.23-2.23,2.79c-4.45,5-6.12,13.9-5.56,20.58a29.9,29.9,0,0,0,5,13.91c-2.22,1.11-5,2.22-7.23,3.34a47.05,47.05,0,0,1-15,2.22h-144.08l-.56,3.34a62.63,62.63,0,0,0,5,31.71l2.22,3.89v.56c13.36,22.25,37.28,32.26,63.42,32.26,50.07,0,91.24-21.69,110.71-68.42,12.79.55,25.59-2.78,31.71-15l1.67-2.78-2.78-1.67c-7.24-4.45-17.25-5-25.59-2.78Zm-71.77-8.91H-2395v21.7h21.69Zm0-27.25H-2395v21.69h21.69Zm0-27.82H-2395v21.7h21.69Zm26.7,55.07h-21.69v21.7h21.69Zm-80.66,0h-21.7v21.7h21.7v-21.7Zm27.26,0h-21.7v21.7h21.7Zm-54,0h-21.7v21.7h21.7v-21.7Zm54-27.25h-21.7v21.69h21.7Zm-27.26,0h-21.7v21.69h21.7v-21.69Z"/>
    </clipPath>
  </defs>
  <title>icon-static-site</title>
  <g class="b">
    <path class="c" d="M-2764.91-499.67H4326.93V342.59H-2764.91Z"/>
  </g>
  <path class="d" d="M159.15,0H40.85A13.86,13.86,0,0,0,27,13.85v12.6a6.16,6.16,0,0,0,6.15,6.15h133.7A6.16,6.16,0,0,0,173,26.45V13.85A13.86,13.86,0,0,0,159.15,0Z" style="fill: rgb(88, 101, 242);"/>
  <circle class="e" cx="42.97" cy="16.96" r="6.3" style="fill: rgb(235, 69, 158);"/>
  <circle class="f" cx="65.27" cy="16.96" r="6.3" style="fill: rgb(254, 231, 92);"/>
  <circle class="g" cx="87.57" cy="16.96" r="6.3" style="fill: rgb(87, 242, 135);"/>
  <path class="g" d="M166.81,39.48H33.19A6.19,6.19,0,0,0,27,45.67V97.06a12.38,12.38,0,0,0,12.36,12.37H160.63A12.39,12.39,0,0,0,173,97.06V45.67A6.19,6.19,0,0,0,166.81,39.48ZM66.69,90.83H42.2a3.83,3.83,0,0,1,0-7.66H66.69a3.83,3.83,0,0,1,0,7.66ZM89.78,76.45H42.2a3.83,3.83,0,1,1,0-7.65H89.78a3.83,3.83,0,0,1,0,7.65Zm0-14.37H42.2a3.83,3.83,0,1,1,0-7.65H89.78a3.83,3.83,0,0,1,0,7.65Z" style="fill: rgb(87, 242, 135);"/>
</svg>