<?xml version="1.0" encoding="utf-8"?>
<svg viewBox="0 0 200 111.89" xmlns="http://www.w3.org/2000/svg">
  <defs>
    <style>.a{fill:none;}.b{clip-path:url(#a);}.c{fill:#051d30;}.d{fill:#5aedc5;}.e{fill:#535fed;}.f{fill:#e6e6e6;}.g{fill:#4facfc;}</style>
  </defs>
  <title>icon-background-worker</title>
  <path class="d" d="M178.24,41.91l-.45-5.62s8.44-9.56,8.15-10.12l-4.3-8.27c-.29-.57-12.82,1.17-12.82,1.17l-4.34-3.61s-.78-12.54-1.39-12.73l-9-2.73c-.62-.18-8.4,9.77-8.4,9.77l-5.69.55s-9.53-8.17-10.1-7.88l-8.44,4.39c-.51.26.55,9.39.86,12a55.87,55.87,0,0,1,8.85,8,22.07,22.07,0,0,1,4.58-3.21,21.25,21.25,0,0,1,28.72,8.73,20.81,20.81,0,0,1,.07,18.91,31.25,31.25,0,0,1,6.62,4.46,28.81,28.81,0,0,1,4.2,4.63c3.77-.33,9.58-.91,9.72-1.31L188,50C188.2,49.42,178.24,41.91,178.24,41.91Z" style="fill: rgb(87, 242, 135);"/>
  <path class="e" d="M44.94,61.38H37.25a25.26,25.26,0,0,0,0,50.51h7.69c17.61,0,28.28-9.06,28.37-25.26C73.31,70.58,62.45,61.38,44.94,61.38Z"/>
  <path class="f" d="M71.32,97.41a28.6,28.6,0,0,0,2-10.78c0-7.82-2.63-14.26-7.62-18.64a24.85,24.85,0,0,0-8.93-4.92A38.59,38.59,0,0,0,45,61.38H37.25a25.19,25.19,0,0,0-17.85,7.4,25.27,25.27,0,0,0,8,41.12,25.09,25.09,0,0,0,7.4,1.87l1.21.12h8.91a39.22,39.22,0,0,0,11.85-1.67,24.58,24.58,0,0,0,8.9-4.89A21.1,21.1,0,0,0,71.32,97.41Z" style=""/>
  <path class="g" d="M165.31,62.27c-9.56-8.47-25.17-6.68-25.33-6.66l-3.83.46-1-3.73a47.44,47.44,0,0,0-32.82-33.63A46.68,46.68,0,0,0,89.5,16.9c-12.77,0-25.35,5.28-35.85,15.3a32,32,0,0,0-8,12.32,62,62,0,0,0-2.51,9.32H45a46.27,46.27,0,0,1,14.06,2,32.44,32.44,0,0,1,11.61,6.44c6.66,5.85,10.19,14.26,10.19,24.31a36.32,36.32,0,0,1-2.57,13.66A28.66,28.66,0,0,1,70.67,111c-.14.13-.31.24-.46.37H145.5c19.66,0,27.26-15.9,27.26-29.56C172.76,73.22,170.25,66.65,165.31,62.27Z" style="fill: rgb(88, 101, 242);"/>
  <title>icon-private-services</title>
</svg>