<svg width="148" height="148" viewBox="0 0 148 148" fill="none" xmlns="http://www.w3.org/2000/svg">
<path d="M118.6 123.4L102.6 107.4C102.373 107.169 102.102 106.986 101.803 106.86C101.505 106.735 101.184 106.671 100.86 106.671C100.536 106.671 100.215 106.735 99.9165 106.86C99.6178 106.986 99.347 107.169 99.1199 107.4C94.5299 112.11 90.1199 116.86 85.8799 121.55C85.601 121.864 85.4074 122.244 85.3178 122.654C85.2281 123.064 85.2453 123.491 85.3678 123.892C85.4903 124.294 85.7139 124.657 86.0172 124.947C86.3205 125.238 86.6933 125.445 87.0999 125.55C96.9244 128.149 107.158 128.828 117.24 127.55C117.687 127.481 118.105 127.289 118.45 126.996C118.795 126.704 119.051 126.322 119.192 125.892C119.333 125.462 119.352 125.002 119.248 124.562C119.143 124.123 118.919 123.72 118.6 123.4Z" fill="#FEE75C"/>
<path d="M94.5199 99.33L75.6499 80.45C75.4231 80.222 75.1536 80.0411 74.8567 79.9177C74.5598 79.7942 74.2414 79.7307 73.9199 79.7307C73.5983 79.7307 73.28 79.7942 72.9831 79.9177C72.6862 80.0411 72.4166 80.222 72.1899 80.45L50.3699 102.26C50.1337 102.494 49.948 102.774 49.8239 103.083C49.6999 103.391 49.6403 103.722 49.6487 104.054C49.6572 104.387 49.7335 104.714 49.873 105.016C50.0124 105.318 50.2122 105.588 50.4599 105.81C57.7744 112.303 66.0834 117.58 75.0699 121.44C75.5451 121.638 76.0709 121.682 76.572 121.563C77.0732 121.444 77.524 121.17 77.8599 120.78C83.2099 114.66 88.8599 108.55 94.5399 102.78C94.7662 102.553 94.9454 102.283 95.067 101.986C95.1886 101.689 95.2502 101.372 95.2484 101.051C95.2465 100.73 95.1812 100.413 95.0562 100.118C94.9311 99.8222 94.7489 99.5546 94.5199 99.33V99.33Z" fill="#FEE75C"/>
<path d="M38.5099 43.31L24.5899 29.4C24.2698 29.0769 23.8658 28.8497 23.4235 28.744C22.9812 28.6383 22.5181 28.6584 22.0866 28.8019C21.655 28.9454 21.2722 29.2066 20.9812 29.5562C20.6902 29.9057 20.5028 30.3296 20.4399 30.78C19.3082 39.6968 19.7175 48.7418 21.6499 57.52C21.7456 57.9323 21.9464 58.3128 22.2329 58.6244C22.5194 58.936 22.8817 59.1681 23.2845 59.298C23.6874 59.4279 24.117 59.4512 24.5315 59.3657C24.9461 59.2802 25.3314 59.0887 25.6499 58.81C29.8299 55.05 34.1199 51.03 38.4499 46.81C38.6867 46.5859 38.8763 46.3168 39.0078 46.0185C39.1392 45.7201 39.2098 45.3986 39.2154 45.0726C39.221 44.7467 39.1615 44.4229 39.0403 44.1202C38.9192 43.8175 38.7389 43.5421 38.5099 43.31V43.31Z" fill="#5AEDC5"/>
<path d="M67.5499 72.35L46.6099 51.41C46.1532 50.9587 45.537 50.7056 44.8949 50.7056C44.2529 50.7056 43.6367 50.9587 43.1799 51.41C37.6699 56.78 31.8699 62.19 26.0499 67.31C25.6724 67.6353 25.4045 68.0692 25.2828 68.5524C25.161 69.0357 25.1915 69.5447 25.3699 70.01C29.2887 80.1169 34.9852 89.4407 42.1899 97.54C42.411 97.7874 42.6803 97.987 42.9814 98.1264C43.2824 98.2657 43.6088 98.342 43.9405 98.3504C44.2721 98.3589 44.602 98.2993 44.9098 98.1754C45.2175 98.0515 45.4966 97.8659 45.7299 97.63L67.5499 75.81C67.7779 75.5833 67.9588 75.3137 68.0823 75.0168C68.2057 74.7199 68.2693 74.4015 68.2693 74.08C68.2693 73.7585 68.2057 73.4401 68.0823 73.1432C67.9588 72.8463 67.7779 72.5768 67.5499 72.35Z" fill="#E6E6E6"/>
<path d="M73.9999 1.57015e-08C61.8654 -0.0253315 49.9134 2.95324 39.2099 8.67C38.7347 8.93483 38.3612 9.35026 38.1482 9.85082C37.9352 10.3514 37.8949 10.9086 38.0336 11.4346C38.1722 11.9606 38.482 12.4255 38.9141 12.756C39.3461 13.0865 39.8759 13.2638 40.4199 13.26C48.6453 13.2595 56.8294 14.421 64.7299 16.71C65.1855 16.8408 65.6691 16.8378 66.1231 16.7013C66.577 16.5647 66.9821 16.3005 67.2899 15.94C70.8299 11.71 74.0199 7.68 76.8199 3.94C77.0977 3.57745 77.2685 3.14449 77.3133 2.68997C77.358 2.23545 77.2748 1.77747 77.0731 1.36773C76.8713 0.957992 76.559 0.612802 76.1715 0.371124C75.784 0.129446 75.3366 0.000901456 74.8799 1.57015e-08H73.9999Z" fill="#5AEDC5"/>
<path d="M148 74C148 72.41 147.94 70.84 147.84 69.27C147.806 68.837 147.658 68.4209 147.41 68.0641C147.162 67.7074 146.824 67.4229 146.431 67.2397C146.037 67.0566 145.601 66.9814 145.169 67.0218C144.737 67.0623 144.323 67.217 143.97 67.47C139.97 70.4 135.59 73.8 131.1 77.55C130.726 77.8649 130.454 78.2846 130.321 78.7551C130.187 79.2256 130.197 79.7254 130.35 80.19C133.258 89.0395 134.739 98.2951 134.74 107.61C134.734 108.156 134.911 108.688 135.243 109.121C135.576 109.554 136.043 109.864 136.572 110C137.101 110.136 137.66 110.09 138.16 109.871C138.66 109.652 139.072 109.271 139.33 108.79C145.047 98.0865 148.025 86.1345 148 74V74Z" fill="#5AEDC5"/>
<path d="M97.5401 42.19C89.4378 34.9843 80.1106 29.2877 70.0001 25.37C69.5348 25.1916 69.0258 25.1611 68.5425 25.2828C68.0593 25.4045 67.6254 25.6724 67.3001 26.05C62.1301 31.93 56.6701 37.79 51.2401 43.34C50.7858 43.7971 50.5308 44.4155 50.5308 45.06C50.5308 45.7045 50.7858 46.3228 51.2401 46.78L72.1901 67.71C72.4168 67.938 72.6864 68.1189 72.9833 68.2423C73.2802 68.3658 73.5986 68.4293 73.9201 68.4293C74.2416 68.4293 74.56 68.3658 74.8569 68.2423C75.1538 68.1189 75.4234 67.938 75.6501 67.71L97.6501 45.71C97.8816 45.4757 98.063 45.1967 98.1833 44.8901C98.3037 44.5835 98.3604 44.2556 98.3501 43.9264C98.3398 43.5972 98.2627 43.2735 98.1235 42.975C97.9842 42.6765 97.7858 42.4094 97.5401 42.19V42.19Z" fill="#5865F2"/>
<path d="M29.1 24.63L43.1 38.68C43.5631 39.1423 44.1907 39.4019 44.845 39.4019C45.4993 39.4019 46.1269 39.1423 46.59 38.68C50.88 34.29 54.95 29.94 58.76 25.68C59.0483 25.3609 59.2478 24.9717 59.3388 24.5514C59.4298 24.131 59.409 23.6942 59.2785 23.2844C59.1479 22.8746 58.9123 22.5062 58.5949 22.2159C58.2776 21.9256 57.8897 21.7236 57.47 21.63C48.6042 19.6905 39.4703 19.2947 30.47 20.46C30.0184 20.5251 29.594 20.715 29.2445 21.0084C28.895 21.3017 28.6344 21.6868 28.492 22.1202C28.3496 22.5537 28.3311 23.0183 28.4385 23.4617C28.5459 23.9051 28.775 24.3098 29.1 24.63Z" fill="#EB459E"/>
<path d="M86.0001 2.46C82.8501 7.05 79.1201 11.94 75.0001 16.94C74.7614 17.2299 74.5931 17.5712 74.5085 17.9371C74.4239 18.303 74.4253 18.6836 74.5125 19.0488C74.5997 19.4141 74.7704 19.7542 75.0111 20.0425C75.2519 20.3307 75.5562 20.5592 75.9001 20.71C85.5729 24.9131 94.5017 30.654 102.34 37.71C102.806 38.1334 103.417 38.3613 104.046 38.3465C104.675 38.3316 105.275 38.075 105.72 37.63L122.09 21.26C122.329 21.0258 122.517 20.7446 122.642 20.4341C122.767 20.1235 122.826 19.7904 122.816 19.4559C122.806 19.1213 122.726 18.7925 122.582 18.4903C122.438 18.188 122.233 17.9189 121.98 17.7C112.396 9.47675 100.849 3.86891 88.4601 1.42C87.9934 1.33677 87.5126 1.39072 87.0759 1.57532C86.6393 1.75992 86.2656 2.06723 86.0001 2.46V2.46Z" fill="#FEE75C"/>
<path d="M108.75 139.35C109.225 139.085 109.599 138.67 109.812 138.169C110.025 137.669 110.065 137.111 109.926 136.585C109.788 136.059 109.478 135.595 109.046 135.264C108.614 134.933 108.084 134.756 107.54 134.76H107.44C98.1839 134.73 88.9907 133.238 80.2 130.34C79.7354 130.187 79.2357 130.177 78.7652 130.311C78.2947 130.444 77.8749 130.716 77.56 131.09C73.81 135.58 70.4 139.92 67.47 143.98C67.2163 144.332 67.0611 144.745 67.0203 145.177C66.9795 145.609 67.0547 146.045 67.2381 146.438C67.4215 146.831 67.7065 147.168 68.0637 147.415C68.4208 147.661 68.8373 147.808 69.27 147.84C70.84 147.95 72.41 148 74 148C86.1194 148.026 98.0571 145.055 108.75 139.35V139.35Z" fill="#5AEDC5"/>
<path d="M107.2 102.73L123.37 118.9C123.691 119.222 124.095 119.449 124.537 119.554C124.978 119.66 125.441 119.641 125.873 119.499C126.304 119.356 126.688 119.097 126.981 118.749C127.273 118.402 127.464 117.98 127.53 117.53C128.844 107.34 128.164 96.9912 125.53 87.06C125.424 86.6543 125.216 86.2825 124.926 85.9797C124.636 85.6769 124.274 85.4533 123.873 85.3301C123.472 85.2069 123.047 85.1881 122.637 85.2756C122.226 85.3631 121.846 85.5539 121.53 85.83C116.79 90.08 111.97 94.59 107.22 99.24C106.987 99.4666 106.802 99.7372 106.675 100.036C106.548 100.335 106.482 100.656 106.48 100.981C106.478 101.306 106.541 101.627 106.664 101.928C106.788 102.228 106.97 102.501 107.2 102.73Z" fill="#EB459E"/>
<path d="M102.26 50.37L80.2601 72.37C80.0321 72.5967 79.8512 72.8663 79.7278 73.1632C79.6043 73.4601 79.5408 73.7785 79.5408 74.1C79.5408 74.4215 79.6043 74.7399 79.7278 75.0368C79.8512 75.3337 80.0321 75.6033 80.2601 75.83L99.1601 94.69C99.6168 95.1413 100.233 95.3944 100.875 95.3944C101.517 95.3944 102.133 95.1413 102.59 94.69C108.43 88.99 114.59 83.24 120.78 77.84C121.17 77.5041 121.445 77.0533 121.563 76.5522C121.682 76.051 121.639 75.5252 121.44 75.05C117.582 66.0623 112.305 57.753 105.81 50.44C105.587 50.1936 105.316 49.9955 105.013 49.8577C104.71 49.72 104.383 49.6455 104.05 49.639C103.718 49.6324 103.387 49.6939 103.08 49.8196C102.772 49.9453 102.493 50.1326 102.26 50.37V50.37Z" fill="#EB459E"/>
<path d="M126.75 25.89L110.38 42.26C109.935 42.7052 109.678 43.3047 109.664 43.934C109.649 44.5633 109.877 45.1742 110.3 45.64C116.688 52.746 122.005 60.7471 126.08 69.39C126.238 69.7226 126.47 70.0149 126.757 70.2448C127.045 70.4748 127.381 70.6363 127.741 70.7172C128.1 70.7981 128.473 70.7963 128.831 70.7119C129.19 70.6275 129.525 70.4627 129.81 70.23C135.03 65.99 140.11 62.16 144.81 58.99C145.222 58.7104 145.539 58.3115 145.717 57.8467C145.896 57.382 145.929 56.8736 145.81 56.39C143.097 45.199 137.779 34.8069 130.29 26.06C130.073 25.8097 129.807 25.606 129.509 25.4612C129.211 25.3165 128.887 25.2336 128.556 25.2177C128.225 25.2018 127.895 25.2532 127.584 25.3688C127.274 25.4843 126.99 25.6616 126.75 25.89V25.89Z" fill="#E6E6E6"/>
<path d="M16.7099 64.73C14.4164 56.8305 13.2549 48.6457 13.2599 40.42C13.2679 39.8727 13.0924 39.3385 12.7613 38.9025C12.4303 38.4666 11.9628 38.1541 11.4334 38.0149C10.904 37.8756 10.3433 37.9177 9.84061 38.1343C9.33792 38.3509 8.92225 38.7296 8.6599 39.21C2.9509 49.916 -0.0239517 61.867 -0.000101858 74C-0.000101858 74.29 -0.000101858 74.59 -0.000101858 74.88C0.00626402 75.3299 0.13641 75.7694 0.376061 76.1502C0.615712 76.5311 0.955612 76.8385 1.35848 77.0389C1.76135 77.2393 2.21163 77.3249 2.65993 77.2863C3.10823 77.2477 3.53724 77.0864 3.8999 76.82C7.6699 74.02 11.6999 70.82 15.8999 67.29C16.2684 66.9877 16.5412 66.5847 16.685 66.1303C16.8288 65.6758 16.8374 65.1893 16.7099 64.73V64.73Z" fill="#5865F2"/>
<path d="M37.7 102.36C30.644 94.5216 24.9031 85.5928 20.7 75.92C20.5492 75.5761 20.3207 75.2718 20.0325 75.031C19.7442 74.7902 19.4041 74.6196 19.0388 74.5324C18.6735 74.4452 18.293 74.4438 17.9271 74.5284C17.5612 74.613 17.2199 74.7813 16.93 75.02C11.93 79.1 7.04 82.83 2.45 86.02C2.06097 86.2921 1.75935 86.6713 1.58182 87.1115C1.40429 87.5518 1.35849 88.0342 1.45 88.5C3.88621 100.88 9.48042 112.419 17.69 122C17.9089 122.253 18.178 122.458 18.4803 122.602C18.7825 122.746 19.1113 122.826 19.4459 122.836C19.7804 122.846 20.1135 122.787 20.4241 122.662C20.7346 122.537 21.0158 122.349 21.25 122.11L37.62 105.74C38.065 105.295 38.3216 104.695 38.3364 104.066C38.3513 103.437 38.1234 102.826 37.7 102.36Z" fill="#5865F2"/>
<path d="M69.3901 126.08C60.7555 121.991 52.7591 116.673 45.6501 110.29C45.1884 109.864 44.5794 109.633 43.951 109.646C43.3226 109.659 42.7237 109.915 42.2801 110.36L25.8901 126.75C25.6505 126.991 25.4636 127.279 25.3415 127.597C25.2193 127.914 25.1645 128.253 25.1804 128.592C25.1964 128.932 25.2829 129.264 25.4343 129.569C25.5858 129.873 25.7989 130.143 26.0601 130.36C34.807 137.849 45.1991 143.167 56.3901 145.88C56.8738 145.997 57.3816 145.964 57.8461 145.785C58.3105 145.607 58.7096 145.291 58.9901 144.88C62.1601 140.14 65.9901 135.05 70.2301 129.88C70.4787 129.595 70.6569 129.255 70.7503 128.888C70.8438 128.521 70.8499 128.138 70.7682 127.768C70.6865 127.399 70.5193 127.053 70.2799 126.76C70.0406 126.467 69.7358 126.234 69.3901 126.08V126.08Z" fill="#5865F2"/>
</svg>
