<svg width="1440" height="560" viewBox="0 0 1440 560" fill="none" xmlns="http://www.w3.org/2000/svg">
<g clip-path="url(#clip0_62_281)">
<path d="M1440 560H0V0H1440V560Z" fill="#0B0B0B"/>
<path d="M-550.656 -237.72C-441.961 -261.548 -338.246 -369.068 -235.695 -325.876C-132.692 -282.493 -147.481 -124.986 -77.0148 -38.2328C0.139732 56.7542 169.718 80.2552 191.938 200.595C213.627 318.062 95.4607 413.205 24.0137 508.936C-39.3963 593.897 -105.611 677.181 -199.911 725.624C-293.768 773.84 -399.846 788.053 -505.11 780.754C-611.923 773.35 -713.559 740.262 -804.475 683.709C-902.956 622.451 -1018.02 556.235 -1046.71 443.86C-1075.25 332.083 -980.447 230.166 -948.577 119.292C-918.658 15.2071 -945.732 -115.569 -865.121 -187.892C-784.493 -260.231 -656.466 -214.524 -550.656 -237.72Z" fill="#201E27"/>
<path d="M2067.51 -409.843C2167.81 -335.519 2178.41 -188.852 2192.22 -64.79C2205.54 54.7805 2203.44 180.516 2144.95 285.655C2088.78 386.644 1981.52 443.344 1879.44 497.495C1785.85 547.14 1684.73 565.547 1580.58 585C1455.21 608.421 1622.09 631.549 1510 570.7C1398.27 510.048 1356.28 475.214 1309.5 357C1266.07 247.236 1464.58 105.459 1575.85 31.6792C1727.9 -69.1352 1614.68 -18.913 1688.02 -119.049C1764.47 -223.438 1237.12 -611.911 1366.22 -620.56C1496.43 -629.281 1574.22 -467.712 1699.2 -430.158C1819.39 -394.044 1966.69 -484.564 2067.51 -409.843Z" fill="#1A1C1F"/>
</g>
<defs>
<clipPath id="clip0_62_281">
<rect width="1440" height="560" fill="white"/>
</clipPath>
</defs>
</svg>
