<svg width="1600" height="800" viewBox="0 0 1600 800" fill="none" xmlns="http://www.w3.org/2000/svg">
<g clip-path="url(#clip0_284_2359)">
<path d="M1600 0H0V800H1600V0Z" fill="#23272A"/>
<path d="M478.101 578.512C481.299 579.314 484.497 580.215 487.595 581.017C683.673 633.621 876.052 714.781 1080.72 757.966C1254.82 794.638 1430.01 787.224 1599 747.746L1600 800H0V572.4C52.2673 554.765 106.433 544.645 160.999 541.439C268.232 534.826 375.465 551.659 478.101 578.512Z" fill="#0B0B0B"/>
<path d="M1600 0H0.000553131L-38.4999 701C10.5001 684.2 -79.7664 855.81 -29.9993 842.5C60.0717 818.411 36.9295 807.28 146.23 829.08C149.63 829.78 426.618 828.385 430 829.08C546.8 853.08 727.901 845.22 843.801 799.9H1600V0Z" fill="#0B0B0B" fill-opacity="0.56"/>
<path d="M478.4 581C481.6 581.8 484.8 582.7 487.9 583.5C684.1 636 876.6 717 1081.4 760.1C1255.6 796.7 1430.9 789.3 1600 749.9V0H0V574.9C52.3 557.3 106.5 547.2 161.1 544C268.4 537.4 375.7 554.2 478.4 581Z" fill="#0B0B0B" fill-opacity="0.26"/>
<path d="M0 0V429.4C55.6 411 113.5 402.1 171.4 401.7C274.2 400.9 374.6 424.4 470.7 456.2C473.7 457.2 476.6 458.2 479.6 459.2C663.2 521.2 845.3 605.3 1042 651.3C1228.7 695 1418.3 685.7 1599.9 638.7V0H0Z" fill="#0B0B0B" fill-opacity="0.56"/>
<path d="M181.8 259.4C280 265.4 373.7 294.6 463.1 331.5C465.9 332.6 468.6 333.8 471.4 334.9C642.4 406.5 814.1 493.4 1002.7 542.6C1201.5 594.4 1406.1 583.4 1600 527.8V0H0V283.2C59 263.6 120.6 255.7 181.8 259.4Z" fill="#0B0B0B" fill-opacity="0.56"/>
<path d="M1600 0H0V136.3C62.3 115.4 127.7 108.8 192.2 117.1C285.8 129.2 372.7 164.8 455.5 206.7C458.1 208 460.6 209.3 463.2 210.6C621.6 291.7 782.9 381.5 963.5 433.8C1174 494.8 1394.3 482.8 1600.1 417.2V0H1600Z" fill="#0B0B0B" fill-opacity="0.56"/>
<path d="M454.901 86.3C600.701 177 751.601 269.3 924.101 325C1132.7 392.4 1355.4 385.8 1562 319.7C1574.8 315.6 1587.4 311.3 1600.1 306.8V0H288.101C344.101 21.3 396.801 50.6 447.801 82C450.201 83.4 452.501 84.9 454.901 86.3Z" fill="#0B0B0B" fill-opacity="0.56"/>
<path d="M1600 0H498.001C616.101 85.8 741.501 164.5 884.801 216.2C1076.6 285.4 1284.8 290.9 1479.8 237.3C1520.6 226.1 1560.9 212.1 1600.1 195.6V0H1600Z" fill="#0B0B0B" fill-opacity="0.56"/>
<path d="M1397.5 154.8C1444.7 144.2 1491.1 129.5 1536.1 111C1557.8 102.1 1579.1 92.2 1600 81.5V0H643.4C706.3 41.7 773.1 78.2 845.5 107.4C1020.4 178.1 1214.2 196.1 1397.5 154.8Z" fill="#0B0B0B" fill-opacity="0.56"/>
<path d="M1315.3 72.4C1390.6 59.8 1464.2 35.3 1532.1 0H809.101C966.801 71 1144.7 101 1315.3 72.4Z" fill="#0B0B0B" fill-opacity="0.56"/>
</g>
<defs>
<clipPath id="clip0_284_2359">
<rect width="1600" height="800" fill="white"/>
</clipPath>
</defs>
</svg>
