<svg width="501" height="381" viewBox="0 0 501 381" fill="none" xmlns="http://www.w3.org/2000/svg">
<g clip-path="url(#clip0_279_1305)">
<path d="M414.073 59.2562L411.695 55.321C391.59 22.1792 355.222 2.16765 316.886 4.61967C311.949 4.91737 307.039 5.5816 302.199 6.60594C267.342 14.0661 237.016 40.4189 224.437 74.1855C217.051 94.0386 214.981 116.895 200.947 132.654C182.688 153.169 151.691 153.804 124.48 152.955C97.2695 152.107 66.1983 152.834 48.0145 173.47C36.6283 186.367 33.01 204.7 33.9335 221.961C36.3578 267.654 68.2219 308.573 108.74 328.893C149.257 349.212 196.965 351.031 241.306 342.097C303.43 329.573 362.533 295.182 398.015 242.066C433.497 188.95 442.468 116.578 414.073 59.2562Z" fill="black" fill-opacity="0.08"/>
<path d="M70.3036 174.773C66.1933 172.887 61.7853 171.497 57.177 170.702C57.0925 170.686 57.0082 170.725 56.9653 170.801C56.3984 171.809 55.7709 173.125 55.3309 174.159C50.3743 173.417 45.4421 173.417 40.5871 174.159C40.1469 173.102 39.4967 171.809 38.9271 170.801C38.8842 170.727 38.8002 170.688 38.7161 170.702C34.1094 171.495 29.7026 172.884 25.5893 174.773C25.553 174.789 25.5231 174.814 25.5018 174.847C17.1417 187.339 14.8506 199.522 15.9747 211.556C15.9798 211.615 16.0125 211.67 16.0585 211.706C21.5756 215.757 26.918 218.217 32.1625 219.846C32.2468 219.873 32.3346 219.842 32.3892 219.773C33.6296 218.079 34.7349 216.292 35.6833 214.414C35.7391 214.304 35.6853 214.173 35.5718 214.129C33.8182 213.464 32.1475 212.653 30.5404 211.732C30.4137 211.658 30.4038 211.476 30.5208 211.389C30.8589 211.136 31.1961 210.872 31.5195 210.606C31.5779 210.557 31.6596 210.547 31.7281 210.577C42.2823 215.396 53.7088 215.396 64.1393 210.577C64.2076 210.544 64.2896 210.555 64.35 210.603C64.674 210.87 65.0116 211.136 65.352 211.389C65.4696 211.476 65.4614 211.658 65.3343 211.732C63.7273 212.672 62.0577 213.464 60.3013 214.128C60.1863 214.172 60.135 214.304 60.1921 214.414C61.1598 216.289 62.2656 218.076 63.4836 219.77C63.5346 219.842 63.6268 219.873 63.7096 219.846C68.9794 218.217 74.3232 215.757 79.8395 211.706C79.8877 211.67 79.9187 211.617 79.923 211.558C81.268 197.646 77.6708 185.563 70.3881 174.85C70.3695 174.814 70.3401 174.789 70.3036 174.773ZM37.2597 204.228C34.0824 204.228 31.4636 201.311 31.4636 197.728C31.4636 194.146 34.0314 191.228 37.2597 191.228C40.5132 191.228 43.1069 194.171 43.0558 197.728C43.0558 201.311 40.4881 204.228 37.2597 204.228ZM58.6895 204.228C55.5122 204.228 52.8931 201.311 52.8931 197.728C52.8931 194.146 55.4609 191.228 58.6895 191.228C61.9432 191.228 64.5349 194.171 64.4851 197.728C64.4851 201.311 61.9432 204.228 58.6895 204.228Z" fill="#3E47AA"/>
<path d="M68.9483 174.193C64.8378 172.306 60.4296 170.917 55.8218 170.12C55.7365 170.106 55.6535 170.144 55.6106 170.221C55.0432 171.229 54.4154 172.544 53.9757 173.578C49.0189 172.836 44.0864 172.836 39.2318 173.578C38.7919 172.522 38.1415 171.229 37.5724 170.221C37.5287 170.146 37.4449 170.108 37.3609 170.12C32.7541 170.915 28.3471 172.303 24.2344 174.193C24.1975 174.208 24.1673 174.234 24.1465 174.266C15.7864 186.758 13.4951 198.941 14.6192 210.975C14.6245 211.034 14.6575 211.09 14.7032 211.126C20.2193 215.176 25.5625 217.637 30.8073 219.266C30.8913 219.292 30.9804 219.261 31.034 219.192C32.2736 217.498 33.3794 215.711 34.3283 213.833C34.3836 213.723 34.3298 213.592 34.2166 213.548C32.4627 212.884 30.7923 212.073 29.1849 211.151C29.0582 211.077 29.0483 210.895 29.1656 210.808C29.5032 210.555 29.8411 210.292 30.1645 210.025C30.2226 209.976 30.3041 209.966 30.3722 209.997C40.9271 214.816 52.3536 214.816 62.7844 209.997C62.8521 209.963 62.9342 209.975 62.9951 210.023C63.3187 210.289 63.6564 210.555 63.9966 210.808C64.1138 210.895 64.1049 211.077 63.979 211.151C62.3724 212.091 60.702 212.884 58.9455 213.547C58.8308 213.59 58.78 213.723 58.8369 213.833C59.8041 215.709 60.9101 217.495 62.1279 219.19C62.1792 219.261 62.2711 219.292 62.3548 219.266C67.6239 217.637 72.9679 215.176 78.484 211.126C78.532 211.09 78.563 211.036 78.5676 210.977C79.9122 197.066 76.3156 184.982 69.0323 174.269C69.0141 174.234 68.9846 174.208 68.9483 174.193ZM35.9037 203.648C32.7272 203.648 30.1081 200.73 30.1081 197.148C30.1081 193.565 32.6762 190.648 35.9037 190.648C39.158 190.648 41.7514 193.59 41.6999 197.148C41.6999 200.73 39.1323 203.648 35.9037 203.648ZM57.3345 203.648C54.157 203.648 51.5382 200.73 51.5382 197.148C51.5382 193.565 54.1059 190.648 57.3345 190.648C60.5877 190.648 63.1799 193.59 63.1301 197.148C63.1301 200.73 60.5877 203.648 57.3345 203.648Z" fill="#5865F2"/>
<path d="M292.045 153.364H102.374C94.7096 153.364 88.4961 159.578 88.4961 167.242V225.461C88.4961 233.126 94.7096 239.34 102.374 239.34H292.045C299.709 239.34 305.923 233.126 305.923 225.461V167.242C305.923 159.578 299.709 153.364 292.045 153.364Z" fill="#2F3136"/>
<path d="M88.4961 167.242C88.4961 159.578 94.7096 153.364 102.374 153.364H292.045C299.709 153.364 305.923 159.578 305.923 167.242V197.643H88.4961V167.242Z" fill="#202225"/>
<path d="M288.08 164.599H247.766C241.927 164.599 237.192 169.333 237.192 175.173C237.192 181.013 241.927 185.747 247.766 185.747H288.08C293.919 185.747 298.653 181.013 298.653 175.173C298.653 169.333 293.919 164.599 288.08 164.599Z" fill="#768AD4"/>
<path d="M247.267 176.904C247.267 177.945 248.017 178.624 249.112 178.624C250.279 178.624 250.983 177.923 250.983 176.707V172.424H250.044V176.703C250.044 177.378 249.704 177.739 249.104 177.739C248.567 177.739 248.202 177.403 248.19 176.904H247.267ZM254.28 178.565C255.615 178.565 256.433 177.672 256.433 176.191C256.433 174.719 255.611 173.821 254.28 173.821C252.947 173.821 252.125 174.719 252.125 176.191C252.125 177.672 252.943 178.565 254.28 178.565ZM254.28 177.764C253.496 177.764 253.056 177.189 253.056 176.191C253.056 175.201 253.496 174.622 254.28 174.622C255.061 174.622 255.506 175.201 255.506 176.191C255.506 177.185 255.061 177.764 254.28 177.764ZM257.536 178.477H258.434V173.909H257.536V178.477ZM257.985 173.116C258.299 173.116 258.556 172.852 258.556 172.529C258.556 172.202 258.299 171.937 257.985 171.937C257.67 171.937 257.414 172.202 257.414 172.529C257.414 172.852 257.67 173.116 257.985 173.116ZM259.759 178.477H260.661V175.805C260.661 175.092 261.085 174.647 261.752 174.647C262.419 174.647 262.738 175.012 262.738 175.747V178.477H263.64V175.52C263.64 174.433 263.077 173.821 262.058 173.821C261.37 173.821 260.917 174.127 260.695 174.635H260.627V173.909H259.759V178.477ZM270.096 178.477L272.248 172.424H271.25L269.626 177.303H269.555L267.923 172.424H266.899L269.064 178.477H270.096ZM274.677 178.565C276.011 178.565 276.829 177.672 276.829 176.191C276.829 174.719 276.007 173.821 274.677 173.821C273.343 173.821 272.521 174.719 272.521 176.191C272.521 177.672 273.339 178.565 274.677 178.565ZM274.677 177.764C273.892 177.764 273.452 177.189 273.452 176.191C273.452 175.201 273.892 174.622 274.677 174.622C275.457 174.622 275.902 175.201 275.902 176.191C275.902 177.185 275.457 177.764 274.677 177.764ZM277.932 178.477H278.83V173.909H277.932V178.477ZM278.381 173.116C278.696 173.116 278.951 172.852 278.951 172.529C278.951 172.202 278.696 171.937 278.381 171.937C278.067 171.937 277.81 172.202 277.81 172.529C277.81 172.852 278.067 173.116 278.381 173.116ZM284.023 175.402C283.906 174.488 283.213 173.821 282.068 173.821C280.738 173.821 279.929 174.714 279.929 176.179C279.929 177.668 280.742 178.565 282.073 178.565C283.201 178.565 283.906 177.928 284.023 177.009H283.147C283.029 177.5 282.639 177.76 282.068 177.76C281.317 177.76 280.851 177.169 280.851 176.179C280.851 175.205 281.313 174.626 282.068 174.626C282.672 174.626 283.042 174.957 283.147 175.402H284.023ZM286.93 174.589C287.598 174.589 288.034 175.054 288.054 175.772H285.747C285.797 175.059 286.263 174.589 286.93 174.589ZM288.05 177.244C287.882 177.6 287.509 177.798 286.964 177.798C286.242 177.798 285.777 177.29 285.747 176.489V176.438H288.974V176.124C288.974 174.689 288.206 173.821 286.935 173.821C285.647 173.821 284.829 174.748 284.829 176.208C284.829 177.668 285.63 178.565 286.939 178.565C287.983 178.565 288.722 178.058 288.919 177.244H288.05Z" fill="white"/>
<path d="M144.352 216.979C144.352 211.045 139.541 206.234 133.606 206.234C127.672 206.234 122.861 211.045 122.861 216.979C122.861 222.913 127.672 227.724 133.606 227.724C139.541 227.724 144.352 222.913 144.352 216.979Z" fill="#ED5B61"/>
<path fill-rule="evenodd" clip-rule="evenodd" d="M137.65 222.332C137.436 222.35 137.23 222.256 137.094 222.091C137.036 222.02 136.969 221.939 136.898 221.852C136.676 221.581 136.808 221.174 137.128 221.033C137.28 220.966 137.422 220.895 137.551 220.823C137.909 220.622 137.695 220.343 137.31 220.486C136.649 220.764 136.014 220.949 135.392 221.055C134.122 221.293 132.959 221.227 131.966 221.042C131.213 220.897 130.564 220.684 130.022 220.473C129.718 220.354 129.387 220.209 129.056 220.024C129.036 220.01 129.017 220 128.997 219.991C128.977 219.981 128.957 219.971 128.937 219.958C128.911 219.944 128.898 219.931 128.884 219.918C128.88 219.915 128.877 219.913 128.873 219.911C128.789 219.864 128.709 219.951 128.774 220.022C129.029 220.3 129.484 220.702 130.192 221.018C130.489 221.151 130.609 221.53 130.405 221.784C130.318 221.892 130.236 221.992 130.166 222.078C130.025 222.251 129.811 222.35 129.589 222.331C128.486 222.236 127.664 221.878 127.081 221.491C126.178 220.891 125.882 219.767 126 218.69C126.226 216.633 126.823 214.882 127.271 213.8C127.596 213.012 128.149 212.332 128.909 211.948C130.188 211.301 131.25 211.245 131.483 211.241C131.513 211.24 131.541 211.254 131.56 211.277C131.609 211.334 131.581 211.423 131.509 211.445C130.291 211.813 129.424 212.27 128.881 212.616C128.769 212.688 128.842 212.804 128.964 212.749C130.379 212.127 131.503 211.955 131.966 211.915L131.996 211.91C132.063 211.899 132.122 211.889 132.191 211.889C132.998 211.783 133.911 211.757 134.863 211.862C135.22 211.903 135.583 211.963 135.952 212.044C136.413 212.145 136.584 211.809 136.141 211.648C136.018 211.604 135.891 211.56 135.759 211.518C135.662 211.486 135.627 211.365 135.695 211.288C135.721 211.258 135.757 211.24 135.797 211.241C136.054 211.247 137.088 211.313 138.332 211.935C139.11 212.324 139.675 213.02 140.006 213.825C140.45 214.906 141.036 216.634 141.263 218.664C141.385 219.757 141.08 220.9 140.16 221.502C139.572 221.887 138.749 222.24 137.65 222.332ZM131.159 216.174C130.405 216.174 129.81 216.836 129.81 217.642C129.81 218.449 130.418 219.111 131.159 219.111C131.913 219.111 132.509 218.449 132.509 217.642C132.522 216.836 131.913 216.174 131.159 216.174ZM135.987 216.174C135.233 216.174 134.638 216.836 134.638 217.642C134.638 218.449 135.247 219.111 135.987 219.111C136.741 219.111 137.336 218.449 137.336 217.642C137.336 216.836 136.741 216.174 135.987 216.174Z" fill="#EBEBED"/>
<path d="M170.786 216.979C170.786 211.045 165.975 206.234 160.041 206.234C154.107 206.234 149.296 211.045 149.296 216.979C149.296 222.913 154.107 227.724 160.041 227.724C165.975 227.724 170.786 222.913 170.786 216.979Z" fill="#A259FF"/>
<path fill-rule="evenodd" clip-rule="evenodd" d="M164.084 222.332C163.871 222.35 163.664 222.256 163.528 222.091C163.47 222.02 163.403 221.939 163.332 221.852C163.111 221.581 163.243 221.174 163.563 221.033C163.715 220.966 163.856 220.895 163.986 220.823C164.343 220.622 164.129 220.343 163.744 220.486C163.084 220.764 162.448 220.949 161.827 221.055C160.557 221.293 159.393 221.227 158.401 221.042C157.647 220.897 156.999 220.684 156.456 220.473C156.152 220.354 155.822 220.209 155.491 220.024C155.471 220.01 155.451 220 155.431 219.991C155.412 219.981 155.392 219.971 155.372 219.958C155.345 219.944 155.332 219.931 155.319 219.918C155.315 219.915 155.312 219.913 155.308 219.911C155.224 219.864 155.143 219.951 155.209 220.022C155.464 220.3 155.918 220.702 156.627 221.018C156.924 221.151 157.044 221.53 156.84 221.784C156.752 221.892 156.67 221.992 156.6 222.078C156.46 222.251 156.246 222.35 156.023 222.331C154.92 222.236 154.099 221.878 153.515 221.491C152.613 220.891 152.317 219.767 152.435 218.69C152.661 216.633 153.258 214.882 153.705 213.8C154.03 213.012 154.583 212.332 155.343 211.948C156.622 211.301 157.685 211.245 157.918 211.241C157.947 211.24 157.976 211.254 157.995 211.277C158.043 211.334 158.015 211.423 157.943 211.445C156.725 211.813 155.858 212.27 155.316 212.616C155.203 212.688 155.277 212.804 155.398 212.749C156.814 212.127 157.938 211.955 158.401 211.915L158.43 211.91C158.497 211.899 158.557 211.889 158.626 211.889C159.433 211.783 160.346 211.757 161.298 211.862C161.654 211.903 162.018 211.963 162.387 212.044C162.848 212.145 163.019 211.809 162.575 211.648C162.452 211.604 162.326 211.56 162.194 211.518C162.096 211.486 162.062 211.365 162.129 211.288C162.156 211.258 162.192 211.24 162.232 211.241C162.489 211.247 163.523 211.313 164.766 211.935C165.545 212.324 166.11 213.02 166.441 213.825C166.885 214.906 167.47 216.634 167.697 218.664C167.819 219.757 167.515 220.9 166.594 221.502C166.007 221.887 165.184 222.24 164.084 222.332ZM157.594 216.174C156.84 216.174 156.245 216.836 156.245 217.642C156.245 218.449 156.854 219.111 157.594 219.111C158.348 219.111 158.943 218.449 158.943 217.642C158.956 216.836 158.348 216.174 157.594 216.174ZM162.422 216.174C161.668 216.174 161.073 216.836 161.073 217.642C161.073 218.449 161.681 219.111 162.422 219.111C163.176 219.111 163.771 218.449 163.771 217.642C163.771 216.836 163.176 216.174 162.422 216.174Z" fill="#EBEBED"/>
<path d="M197.222 216.979C197.222 211.045 192.411 206.234 186.477 206.234C180.542 206.234 175.731 211.045 175.731 216.979C175.731 222.913 180.542 227.724 186.477 227.724C192.411 227.724 197.222 222.913 197.222 216.979Z" fill="#FF7262"/>
<path fill-rule="evenodd" clip-rule="evenodd" d="M190.519 222.332C190.305 222.35 190.099 222.256 189.963 222.091C189.905 222.02 189.838 221.939 189.767 221.852C189.545 221.581 189.677 221.174 189.997 221.033C190.149 220.966 190.291 220.895 190.42 220.823C190.778 220.622 190.564 220.343 190.179 220.486C189.518 220.764 188.883 220.949 188.261 221.055C186.992 221.293 185.828 221.227 184.835 221.042C184.082 220.897 183.433 220.684 182.891 220.473C182.587 220.354 182.256 220.209 181.925 220.024C181.906 220.01 181.886 220 181.866 219.991C181.846 219.981 181.826 219.971 181.806 219.958C181.78 219.944 181.767 219.931 181.754 219.918C181.75 219.915 181.746 219.913 181.742 219.911C181.658 219.864 181.578 219.951 181.643 220.022C181.898 220.3 182.353 220.702 183.061 221.018C183.358 221.151 183.478 221.53 183.274 221.784C183.187 221.892 183.105 221.992 183.035 222.078C182.894 222.251 182.68 222.35 182.458 222.331C181.355 222.236 180.534 221.878 179.95 221.491C179.047 220.891 178.751 219.767 178.87 218.69C179.096 216.633 179.692 214.882 180.14 213.8C180.465 213.012 181.018 212.332 181.778 211.948C183.057 211.301 184.119 211.245 184.352 211.241C184.382 211.24 184.41 211.254 184.429 211.277C184.478 211.334 184.45 211.423 184.378 211.445C183.16 211.813 182.293 212.27 181.75 212.616C181.638 212.688 181.711 212.804 181.833 212.749C183.248 212.127 184.373 211.955 184.835 211.915L184.865 211.91C184.932 211.899 184.991 211.889 185.061 211.889C185.868 211.783 186.78 211.757 187.732 211.862C188.089 211.903 188.452 211.963 188.822 212.044C189.282 212.145 189.453 211.809 189.01 211.648C188.887 211.604 188.76 211.56 188.629 211.518C188.531 211.486 188.496 211.365 188.564 211.288C188.59 211.258 188.627 211.24 188.666 211.241C188.923 211.247 189.958 211.313 191.201 211.935C191.979 212.324 192.544 213.02 192.875 213.825C193.319 214.906 193.905 216.634 194.132 218.664C194.254 219.757 193.949 220.9 193.029 221.502C192.441 221.887 191.618 222.24 190.519 222.332ZM184.028 216.174C183.275 216.174 182.679 216.836 182.679 217.642C182.679 218.449 183.288 219.111 184.028 219.111C184.782 219.111 185.378 218.449 185.378 217.642C185.391 216.836 184.782 216.174 184.028 216.174ZM188.857 216.174C188.103 216.174 187.507 216.836 187.507 217.642C187.507 218.449 188.116 219.111 188.857 219.111C189.611 219.111 190.205 218.449 190.205 217.642C190.205 216.836 189.611 216.174 188.857 216.174Z" fill="#EBEBED"/>
<path d="M223.656 216.979C223.656 211.045 218.845 206.234 212.911 206.234C206.977 206.234 202.166 211.045 202.166 216.979C202.166 222.913 206.977 227.724 212.911 227.724C218.845 227.724 223.656 222.913 223.656 216.979Z" fill="#0ACF83"/>
<path fill-rule="evenodd" clip-rule="evenodd" d="M216.953 222.332C216.74 222.35 216.534 222.256 216.397 222.091C216.339 222.02 216.273 221.939 216.201 221.852C215.98 221.581 216.112 221.174 216.432 221.033C216.584 220.966 216.725 220.895 216.855 220.823C217.212 220.622 216.998 220.343 216.614 220.486C215.953 220.764 215.318 220.949 214.696 221.055C213.426 221.293 212.262 221.227 211.27 221.042C210.516 220.897 209.868 220.684 209.325 220.473C209.021 220.354 208.691 220.209 208.36 220.024C208.34 220.01 208.32 220 208.3 219.991C208.281 219.981 208.261 219.971 208.241 219.958C208.215 219.944 208.201 219.931 208.188 219.918C208.184 219.915 208.181 219.913 208.177 219.911C208.093 219.864 208.012 219.951 208.078 220.022C208.333 220.3 208.788 220.702 209.496 221.018C209.793 221.151 209.913 221.53 209.709 221.784C209.622 221.892 209.54 221.992 209.47 222.078C209.329 222.251 209.115 222.35 208.893 222.331C207.79 222.236 206.968 221.878 206.385 221.491C205.482 220.891 205.186 219.767 205.304 218.69C205.53 216.633 206.127 214.882 206.574 213.8C206.899 213.012 207.453 212.332 208.213 211.948C209.491 211.301 210.554 211.245 210.787 211.241C210.816 211.24 210.845 211.254 210.864 211.277C210.912 211.334 210.884 211.423 210.812 211.445C209.594 211.813 208.727 212.27 208.185 212.616C208.072 212.688 208.146 212.804 208.267 212.749C209.683 212.127 210.807 211.955 211.27 211.915L211.3 211.91C211.366 211.899 211.426 211.889 211.495 211.889C212.302 211.783 213.215 211.757 214.167 211.862C214.523 211.903 214.887 211.963 215.256 212.044C215.717 212.145 215.888 211.809 215.445 211.648C215.322 211.604 215.195 211.56 215.063 211.518C214.965 211.486 214.931 211.365 214.998 211.288C215.025 211.258 215.061 211.24 215.101 211.241C215.358 211.247 216.392 211.313 217.635 211.935C218.414 212.324 218.979 213.02 219.31 213.825C219.754 214.906 220.34 216.634 220.566 218.664C220.689 219.757 220.384 220.9 219.463 221.502C218.876 221.887 218.053 222.24 216.953 222.332ZM210.463 216.174C209.709 216.174 209.114 216.836 209.114 217.642C209.114 218.449 209.723 219.111 210.463 219.111C211.217 219.111 211.812 218.449 211.812 217.642C211.826 216.836 211.217 216.174 210.463 216.174ZM215.291 216.174C214.537 216.174 213.942 216.836 213.942 217.642C213.942 218.449 214.55 219.111 215.291 219.111C216.045 219.111 216.64 218.449 216.64 217.642C216.64 216.836 216.045 216.174 215.291 216.174Z" fill="#EBEBED"/>
<path d="M135.712 163.804H137.85L140.107 169.311H140.203L142.46 163.804H144.597V172H142.916V166.665H142.848L140.727 171.96H139.582L137.461 166.645H137.393V172H135.712V163.804ZM149.935 169.383V165.853H151.64V172H150.003V170.883H149.939C149.8 171.244 149.569 171.533 149.247 171.752C148.926 171.971 148.536 172.08 148.074 172.08C147.663 172.08 147.302 171.987 146.989 171.8C146.677 171.613 146.433 171.348 146.257 171.003C146.084 170.659 145.996 170.247 145.993 169.767V165.853H147.698V169.463C147.7 169.826 147.798 170.112 147.99 170.323C148.182 170.534 148.439 170.639 148.762 170.639C148.968 170.639 149.16 170.593 149.339 170.499C149.517 170.403 149.661 170.262 149.771 170.075C149.883 169.888 149.938 169.657 149.935 169.383ZM158.118 167.606L156.557 167.702C156.531 167.568 156.473 167.448 156.385 167.342C156.297 167.232 156.181 167.145 156.037 167.081C155.896 167.015 155.726 166.981 155.529 166.981C155.265 166.981 155.042 167.037 154.861 167.149C154.679 167.259 154.588 167.406 154.588 167.59C154.588 167.736 154.647 167.86 154.765 167.962C154.882 168.063 155.083 168.145 155.369 168.206L156.481 168.43C157.079 168.553 157.525 168.75 157.818 169.022C158.112 169.295 158.258 169.652 158.258 170.095C158.258 170.498 158.14 170.851 157.902 171.156C157.667 171.46 157.345 171.697 156.934 171.868C156.525 172.036 156.055 172.12 155.521 172.12C154.707 172.12 154.059 171.951 153.576 171.612C153.096 171.27 152.814 170.806 152.731 170.219L154.408 170.131C154.459 170.379 154.582 170.569 154.777 170.699C154.971 170.827 155.221 170.891 155.525 170.891C155.824 170.891 156.064 170.834 156.245 170.719C156.429 170.602 156.523 170.451 156.525 170.267C156.523 170.112 156.457 169.986 156.329 169.887C156.201 169.785 156.004 169.708 155.737 169.655L154.672 169.443C154.072 169.323 153.625 169.114 153.332 168.818C153.041 168.522 152.896 168.145 152.896 167.686C152.896 167.291 153.002 166.951 153.216 166.665C153.432 166.38 153.735 166.16 154.124 166.005C154.516 165.85 154.975 165.773 155.501 165.773C156.277 165.773 156.888 165.937 157.334 166.265C157.782 166.593 158.044 167.04 158.118 167.606ZM159.332 172V165.853H161.037V172H159.332ZM160.188 165.06C159.935 165.06 159.717 164.976 159.536 164.808C159.357 164.637 159.268 164.433 159.268 164.196C159.268 163.961 159.357 163.76 159.536 163.592C159.717 163.421 159.935 163.335 160.188 163.335C160.442 163.335 160.658 163.421 160.837 163.592C161.018 163.76 161.109 163.961 161.109 164.196C161.109 164.433 161.018 164.637 160.837 164.808C160.658 164.976 160.442 165.06 160.188 165.06ZM165.18 172.12C164.55 172.12 164.009 171.987 163.555 171.72C163.104 171.45 162.757 171.077 162.515 170.599C162.275 170.122 162.154 169.572 162.154 168.95C162.154 168.321 162.276 167.768 162.519 167.293C162.764 166.816 163.112 166.444 163.563 166.177C164.014 165.907 164.55 165.773 165.172 165.773C165.708 165.773 166.178 165.87 166.581 166.065C166.984 166.26 167.303 166.533 167.537 166.885C167.772 167.237 167.902 167.651 167.926 168.126H166.317C166.271 167.819 166.151 167.572 165.956 167.386C165.764 167.196 165.512 167.101 165.2 167.101C164.936 167.101 164.705 167.173 164.508 167.318C164.313 167.459 164.161 167.666 164.051 167.938C163.942 168.21 163.887 168.539 163.887 168.926C163.887 169.319 163.941 169.652 164.047 169.927C164.157 170.202 164.31 170.411 164.508 170.555C164.705 170.699 164.936 170.771 165.2 170.771C165.395 170.771 165.57 170.731 165.724 170.651C165.882 170.571 166.011 170.455 166.113 170.303C166.217 170.148 166.285 169.963 166.317 169.747H167.926C167.899 170.216 167.771 170.63 167.541 170.987C167.315 171.342 167.001 171.62 166.601 171.82C166.201 172.02 165.727 172.12 165.18 172.12ZM171.658 172V163.804H174.939C175.542 163.804 176.045 163.893 176.448 164.072C176.851 164.251 177.154 164.499 177.357 164.816C177.559 165.131 177.661 165.494 177.661 165.905C177.661 166.225 177.597 166.506 177.469 166.749C177.341 166.989 177.164 167.187 176.94 167.342C176.719 167.494 176.465 167.602 176.18 167.666V167.746C176.492 167.759 176.784 167.847 177.056 168.01C177.331 168.173 177.554 168.401 177.725 168.694C177.896 168.985 177.981 169.332 177.981 169.735C177.981 170.17 177.873 170.558 177.657 170.899C177.443 171.238 177.127 171.506 176.708 171.704C176.289 171.901 175.773 172 175.159 172H171.658ZM173.39 170.583H174.803C175.286 170.583 175.638 170.491 175.86 170.307C176.081 170.12 176.192 169.872 176.192 169.563C176.192 169.336 176.137 169.136 176.028 168.962C175.918 168.789 175.762 168.653 175.56 168.554C175.359 168.455 175.121 168.406 174.843 168.406H173.39V170.583ZM173.39 167.233H174.675C174.913 167.233 175.123 167.192 175.307 167.109C175.494 167.024 175.641 166.904 175.748 166.749C175.857 166.594 175.912 166.409 175.912 166.193C175.912 165.897 175.806 165.658 175.596 165.477C175.388 165.295 175.091 165.204 174.707 165.204H173.39V167.233ZM181.854 172.12C181.232 172.12 180.695 171.988 180.241 171.724C179.79 171.457 179.442 171.086 179.197 170.611C178.951 170.134 178.828 169.58 178.828 168.95C178.828 168.315 178.951 167.76 179.197 167.285C179.442 166.808 179.79 166.437 180.241 166.173C180.695 165.906 181.232 165.773 181.854 165.773C182.476 165.773 183.012 165.906 183.463 166.173C183.916 166.437 184.266 166.808 184.511 167.285C184.757 167.76 184.88 168.315 184.88 168.95C184.88 169.58 184.757 170.134 184.511 170.611C184.266 171.086 183.916 171.457 183.463 171.724C183.012 171.988 182.476 172.12 181.854 172.12ZM181.862 170.799C182.145 170.799 182.381 170.719 182.57 170.559C182.76 170.396 182.903 170.175 182.999 169.895C183.097 169.615 183.147 169.296 183.147 168.938C183.147 168.581 183.097 168.262 182.999 167.982C182.903 167.702 182.76 167.48 182.57 167.318C182.381 167.155 182.145 167.073 181.862 167.073C181.576 167.073 181.336 167.155 181.142 167.318C180.949 167.48 180.804 167.702 180.705 167.982C180.609 168.262 180.561 168.581 180.561 168.938C180.561 169.296 180.609 169.615 180.705 169.895C180.804 170.175 180.949 170.396 181.142 170.559C181.336 170.719 181.576 170.799 181.862 170.799ZM189.258 165.853V167.133H185.556V165.853H189.258ZM186.396 164.38H188.101V170.111C188.101 170.268 188.125 170.391 188.173 170.479C188.221 170.565 188.288 170.625 188.373 170.659C188.461 170.694 188.563 170.711 188.678 170.711C188.758 170.711 188.838 170.705 188.918 170.691C188.998 170.675 189.059 170.663 189.102 170.655L189.37 171.924C189.285 171.951 189.165 171.981 189.01 172.016C188.855 172.053 188.667 172.076 188.445 172.084C188.035 172.1 187.674 172.045 187.365 171.92C187.058 171.795 186.819 171.6 186.648 171.336C186.478 171.072 186.394 170.738 186.396 170.335V164.38Z" fill="white"/>
<path d="M135.721 176.557H144.604L142.768 185.108H133.885L135.721 176.557Z" fill="#73767D"/>
<path d="M151.62 181.369V180.614H149.137V181.402H150.698V181.532C150.689 182.43 150.01 183.035 149.02 183.035C147.882 183.035 147.169 182.154 147.169 180.727C147.169 179.326 147.878 178.441 148.999 178.441C149.825 178.441 150.4 178.839 150.634 179.569H151.579C151.373 178.344 150.374 177.564 148.999 177.564C147.303 177.564 146.209 178.806 146.209 180.735C146.209 182.69 147.291 183.911 149.007 183.911C150.593 183.911 151.62 182.917 151.62 181.369ZM154.288 183.08C153.798 183.08 153.441 182.842 153.441 182.43C153.441 182.027 153.726 181.813 154.356 181.772L155.471 181.7V182.082C155.471 182.649 154.968 183.08 154.288 183.08ZM154.057 183.84C154.658 183.84 155.157 183.58 155.429 183.123H155.501V183.764H156.369V180.643C156.369 179.678 155.723 179.108 154.578 179.108C153.541 179.108 152.803 179.611 152.711 180.396H153.584C153.684 180.073 154.032 179.888 154.536 179.888C155.153 179.888 155.471 180.161 155.471 180.643V181.037L154.234 181.109C153.147 181.176 152.535 181.65 152.535 182.472C152.535 183.307 153.177 183.84 154.057 183.84ZM157.653 183.764H158.555V180.971C158.555 180.383 158.97 179.934 159.52 179.934C160.056 179.934 160.401 180.249 160.401 180.765V183.764H161.285V180.891C161.285 180.353 161.667 179.934 162.25 179.934C162.842 179.934 163.135 180.237 163.135 180.853V183.764H164.037V180.618C164.037 179.666 163.501 179.108 162.577 179.108C161.944 179.108 161.42 179.431 161.189 179.93H161.118C160.917 179.431 160.484 179.108 159.859 179.108C159.251 179.108 158.789 179.414 158.588 179.93H158.521V179.196H157.653V183.764ZM167.18 179.876C167.847 179.876 168.283 180.341 168.304 181.059H165.997C166.047 180.346 166.512 179.876 167.18 179.876ZM168.299 182.531C168.131 182.887 167.759 183.085 167.213 183.085C166.492 183.085 166.026 182.577 165.997 181.776V181.725H169.223V181.411C169.223 179.976 168.455 179.108 167.184 179.108C165.896 179.108 165.078 180.035 165.078 181.495C165.078 182.955 165.879 183.852 167.188 183.852C168.233 183.852 168.971 183.345 169.168 182.531H168.299ZM173.409 184.931V184.213H169.462V184.931H173.409ZM177.739 180.689C177.621 179.775 176.929 179.108 175.784 179.108C174.453 179.108 173.644 180.001 173.644 181.466C173.644 182.955 174.458 183.852 175.788 183.852C176.916 183.852 177.621 183.215 177.739 182.296H176.862C176.744 182.787 176.354 183.047 175.784 183.047C175.032 183.047 174.567 182.456 174.567 181.466C174.567 180.492 175.028 179.913 175.784 179.913C176.388 179.913 176.756 180.244 176.862 180.689H177.739ZM178.812 183.764H179.714V181.096C179.714 180.404 180.125 179.938 180.864 179.938C181.501 179.938 181.841 180.308 181.841 181.037V183.764H182.743V180.815C182.743 179.729 182.143 179.112 181.17 179.112C180.482 179.112 179.999 179.418 179.777 179.93H179.706V177.413H178.812V183.764ZM185.507 183.08C185.017 183.08 184.66 182.842 184.66 182.43C184.66 182.027 184.945 181.813 185.574 181.772L186.691 181.7V182.082C186.691 182.649 186.187 183.08 185.507 183.08ZM185.276 183.84C185.876 183.84 186.375 183.58 186.648 183.123H186.72V183.764H187.588V180.643C187.588 179.678 186.942 179.108 185.797 179.108C184.761 179.108 184.022 179.611 183.93 180.396H184.803C184.903 180.073 185.251 179.888 185.755 179.888C186.371 179.888 186.691 180.161 186.691 180.643V181.037L185.453 181.109C184.366 181.176 183.754 181.65 183.754 182.472C183.754 183.307 184.395 183.84 185.276 183.84ZM189.191 178.059V179.217H188.465V179.976H189.191V182.556C189.191 183.437 189.589 183.789 190.592 183.789C190.768 183.789 190.935 183.768 191.083 183.743V182.992C190.957 183.005 190.877 183.013 190.739 183.013C190.29 183.013 190.092 182.803 190.092 182.326V179.976H191.083V179.217H190.092V178.059H189.191ZM195.408 184.931V184.213H191.46V184.931H195.408ZM196.574 183.764H197.513V177.711H196.578L194.984 178.835V179.796L196.503 178.722H196.574V183.764Z" fill="#73767D"/>
<path d="M127.898 186.157C127.898 182.004 124.531 178.637 120.377 178.637C116.224 178.637 112.857 182.004 112.857 186.157C112.857 190.31 116.224 193.677 120.377 193.677C124.531 193.677 127.898 190.31 127.898 186.157Z" fill="#36383D" stroke="#202225" stroke-width="1.32174"/>
<path fill-rule="evenodd" clip-rule="evenodd" d="M116.262 187.242V185.077C116.262 184.779 116.482 184.536 116.749 184.536H118.213L119.818 182.75C120.125 182.409 120.652 182.652 120.652 183.134V189.181C120.652 189.663 120.125 189.906 119.818 189.565L118.213 187.784H116.749C116.482 187.784 116.262 187.54 116.262 187.242ZM121.384 184.72C121.925 184.984 122.299 185.526 122.299 186.158C122.299 186.79 121.925 187.332 121.384 187.592V184.72ZM121.384 183.536V183.464C121.384 183.24 121.614 183.079 121.827 183.161C123.067 183.622 123.945 184.788 123.945 186.158C123.945 187.528 123.067 188.694 121.827 189.155C121.614 189.234 121.384 189.076 121.384 188.852V188.78C121.384 188.645 121.472 188.527 121.604 188.477C122.547 188.109 123.213 187.207 123.213 186.158C123.213 185.109 122.547 184.206 121.604 183.839C121.475 183.789 121.384 183.671 121.384 183.536Z" fill="#BABBBE"/>
<path opacity="0.1" d="M94.4829 39.7311H292.956C296.932 39.7311 300.154 42.9545 300.154 46.9298V64.4371C300.154 68.4124 296.932 71.6358 292.956 71.6358H94.4829C90.5075 71.6358 87.2842 68.4124 87.2842 64.4371V46.9298C87.2842 42.9545 90.5075 39.7311 94.4829 39.7311Z" fill="#231F20"/>
<path d="M94.4829 38.5649H292.956C296.932 38.5649 300.154 41.7883 300.154 45.7636V63.2709C300.154 67.2462 296.932 70.4695 292.956 70.4695H94.4829C90.5075 70.4695 87.2842 67.2462 87.2842 63.2709V45.7636C87.2842 41.7883 90.5075 38.5649 94.4829 38.5649Z" fill="white"/>
<path d="M255.546 60.8458C254.445 60.8481 253.388 60.4119 252.61 59.6333L245.514 52.5388C243.822 50.8438 244.601 47.9537 246.915 47.337C247.985 47.0513 249.127 47.3579 249.913 48.14L255.64 53.867C256.462 54.6954 256.462 56.0328 255.64 56.8612C254.801 57.6607 253.483 57.6595 252.645 56.8589L248.434 52.6487C248.08 52.2923 248.244 51.6849 248.731 51.5577C248.955 51.4975 249.194 51.5611 249.359 51.7254L253.57 55.9368C253.889 56.2446 254.395 56.2457 254.715 55.9379C255.031 55.6209 255.031 55.1073 254.715 54.7903L248.988 49.0644C248.274 48.3818 247.151 48.3818 246.438 49.0644C245.735 49.769 245.735 50.9121 246.438 51.6167L253.533 58.7089C255.081 60.2616 257.729 59.5558 258.3 57.4397C258.565 56.4539 258.282 55.4011 257.56 54.6815L252.276 49.3976C251.921 49.0424 252.084 48.435 252.569 48.3043C252.795 48.2441 253.037 48.3089 253.201 48.4732L258.485 53.7571C260.747 56.0143 259.717 59.874 256.63 60.7047C256.277 60.7996 255.912 60.847 255.546 60.8458Z" fill="#83898D"/>
<path d="M102.612 61.9589C96.9441 61.9589 93.4014 55.8223 96.236 50.9133C99.0706 46.0043 106.156 46.0043 108.99 50.9145C109.636 52.0333 109.976 53.3025 109.976 54.5948C109.972 58.6604 106.678 61.9543 102.612 61.9589ZM102.612 48.5369C97.9483 48.5369 95.0339 53.5871 97.3664 57.626C99.6988 61.665 105.53 61.6639 107.861 57.6237C108.392 56.7039 108.672 55.658 108.672 54.5948C108.668 51.25 105.957 48.5403 102.612 48.5369Z" fill="#83898D"/>
<path d="M101.545 52.7702C101.545 53.4713 101.126 54.0394 100.609 54.0394C100.092 54.0394 99.6729 53.4713 99.6729 52.7702C99.6729 52.0691 100.092 51.501 100.609 51.501C101.126 51.501 101.545 52.0691 101.545 52.7702Z" fill="#83898D"/>
<path d="M105.552 52.7702C105.552 53.4713 105.132 54.0394 104.616 54.0394C104.098 54.0394 103.68 53.4713 103.68 52.7702C103.68 52.0691 104.098 51.501 104.616 51.501C105.132 51.501 105.552 52.0691 105.552 52.7702Z" fill="#83898D"/>
<path d="M98.7119 55.8547C99.6791 58.8582 103.535 59.6866 105.653 57.346C106.042 56.9156 106.335 56.4077 106.513 55.8547H98.7119Z" fill="#83898D"/>
<path d="M119.458 48.0918V46.8988H127.787V48.0918H124.295V58.0043H122.95V48.0918H119.458ZM129.559 61.1277C129.342 61.1277 129.149 61.1096 128.979 61.0735C128.809 61.0409 128.691 61.0084 128.626 60.9758L128.952 59.848C129.263 59.9275 129.537 59.9564 129.776 59.9347C130.015 59.913 130.226 59.8064 130.41 59.6148C130.598 59.4268 130.77 59.1213 130.926 58.6984L131.164 58.0477L128.084 49.6752H129.472L131.772 56.3124H131.858L134.157 49.6752H135.546L132.01 59.2189C131.851 59.6491 131.654 60.0052 131.419 60.2872C131.184 60.5728 130.911 60.7843 130.6 60.9216C130.293 61.059 129.946 61.1277 129.559 61.1277ZM137.235 61.1277V49.6752H138.471V50.9983H138.623C138.717 50.8537 138.847 50.6693 139.013 50.4452C139.183 50.2174 139.425 50.015 139.74 49.8379C140.058 49.6571 140.488 49.5667 141.031 49.5667C141.732 49.5667 142.35 49.7421 142.885 50.0927C143.42 50.4434 143.838 50.9405 144.138 51.5839C144.438 52.2274 144.588 52.9866 144.588 53.8614C144.588 54.7435 144.438 55.5081 144.138 56.1552C143.838 56.7987 143.422 57.2975 142.891 57.6518C142.359 58.0025 141.746 58.1778 141.052 58.1778C140.517 58.1778 140.089 58.0892 139.767 57.9121C139.445 57.7313 139.198 57.5271 139.024 57.2993C138.851 57.068 138.717 56.8764 138.623 56.7245H138.514V61.1277H137.235ZM138.493 53.8397C138.493 54.4687 138.585 55.0237 138.769 55.5045C138.954 55.9816 139.223 56.3558 139.577 56.6269C139.932 56.8944 140.365 57.0282 140.879 57.0282C141.414 57.0282 141.86 56.8872 142.218 56.6052C142.58 56.3197 142.851 55.9365 143.032 55.4557C143.216 54.9712 143.308 54.4326 143.308 53.8397C143.308 53.2541 143.218 52.7263 143.037 52.2563C142.86 51.7828 142.59 51.4086 142.229 51.1339C141.871 50.8555 141.421 50.7163 140.879 50.7163C140.358 50.7163 139.921 50.8483 139.566 51.1122C139.212 51.3725 138.945 51.7376 138.764 52.2075C138.583 52.6739 138.493 53.2179 138.493 53.8397ZM150.032 58.1778C149.23 58.1778 148.537 58.0007 147.955 57.6464C147.377 57.2885 146.93 56.7896 146.616 56.1497C146.305 55.5063 146.149 54.758 146.149 53.9048C146.149 53.0516 146.305 52.2997 146.616 51.649C146.93 50.9947 147.368 50.485 147.928 50.1198C148.492 49.7511 149.15 49.5667 149.902 49.5667C150.336 49.5667 150.764 49.639 151.187 49.7836C151.61 49.9282 151.995 50.1632 152.342 50.4886C152.689 50.8103 152.966 51.2369 153.172 51.7683C153.378 52.2997 153.481 52.954 153.481 53.7313V54.2735H147.06V53.1673H152.179C152.179 52.6974 152.085 52.278 151.897 51.9093C151.713 51.5406 151.449 51.2495 151.106 51.0363C150.766 50.823 150.365 50.7163 149.902 50.7163C149.392 50.7163 148.951 50.8428 148.579 51.0959C148.21 51.3453 147.926 51.6707 147.727 52.072C147.529 52.4732 147.429 52.9034 147.429 53.3625V54.1C147.429 54.729 147.538 55.2623 147.755 55.6997C147.975 56.1335 148.281 56.4643 148.671 56.692C149.061 56.9161 149.515 57.0282 150.032 57.0282C150.368 57.0282 150.672 56.9812 150.943 56.8872C151.218 56.7896 151.455 56.645 151.653 56.4534C151.852 56.2582 152.006 56.016 152.114 55.7268L153.351 56.0738C153.221 56.4932 153.002 56.8619 152.695 57.18C152.387 57.4945 152.008 57.7404 151.556 57.9175C151.104 58.091 150.596 58.1778 150.032 58.1778ZM162.173 58.1995C161.645 58.1995 161.166 58.1001 160.736 57.9012C160.306 57.6988 159.964 57.4078 159.711 57.0282C159.458 56.645 159.332 56.1823 159.332 55.64C159.332 55.1628 159.426 54.776 159.614 54.4796C159.802 54.1795 160.053 53.9446 160.368 53.7747C160.682 53.6047 161.029 53.4782 161.409 53.3951C161.792 53.3083 162.177 53.2396 162.564 53.189C163.07 53.1239 163.48 53.0751 163.795 53.0426C164.113 53.0065 164.344 52.9468 164.489 52.8637C164.637 52.7805 164.711 52.6359 164.711 52.4299V52.3865C164.711 51.8514 164.565 51.4357 164.272 51.1393C163.983 50.8428 163.543 50.6946 162.954 50.6946C162.343 50.6946 161.864 50.8284 161.517 51.0959C161.17 51.3634 160.926 51.649 160.785 51.9527L159.57 51.5189C159.787 51.0128 160.077 50.6187 160.438 50.3367C160.803 50.0511 161.201 49.8523 161.631 49.7403C162.065 49.6246 162.491 49.5667 162.911 49.5667C163.178 49.5667 163.486 49.5993 163.833 49.6643C164.183 49.7258 164.521 49.8541 164.847 50.0493C165.176 50.2446 165.448 50.5392 165.665 50.9332C165.882 51.3273 165.991 51.8551 165.991 52.5166V58.0043H164.711V56.8764H164.646C164.559 57.0571 164.415 57.2505 164.212 57.4566C164.01 57.6626 163.74 57.838 163.404 57.9826C163.068 58.1272 162.658 58.1995 162.173 58.1995ZM162.368 57.0499C162.875 57.0499 163.301 56.9505 163.648 56.7517C163.999 56.5528 164.263 56.2962 164.44 55.9816C164.621 55.6671 164.711 55.3364 164.711 54.9893V53.818C164.657 53.8831 164.537 53.9428 164.353 53.997C164.172 54.0476 163.963 54.0928 163.724 54.1325C163.489 54.1687 163.26 54.2012 163.035 54.2302C162.815 54.2555 162.636 54.2771 162.499 54.2952C162.166 54.3386 161.855 54.4091 161.566 54.5067C161.28 54.6007 161.049 54.7435 160.872 54.9351C160.698 55.1231 160.612 55.3797 160.612 55.7051C160.612 56.1497 160.776 56.4859 161.105 56.7137C161.438 56.9378 161.859 57.0499 162.368 57.0499ZM172.621 58.0043V49.6752H173.858V50.9766H173.966C174.14 50.5319 174.42 50.1867 174.807 49.9409C175.193 49.6914 175.658 49.5667 176.2 49.5667C176.75 49.5667 177.207 49.6914 177.572 49.9409C177.941 50.1867 178.228 50.5319 178.434 50.9766H178.521C178.734 50.5464 179.054 50.2048 179.481 49.9517C179.907 49.6951 180.419 49.5667 181.015 49.5667C181.76 49.5667 182.369 49.7999 182.843 50.2662C183.316 50.729 183.553 51.4502 183.553 52.4299V58.0043H182.273V52.4299C182.273 51.8153 182.105 51.3761 181.769 51.1122C181.433 50.8483 181.037 50.7163 180.582 50.7163C179.996 50.7163 179.542 50.8935 179.22 51.2477C178.899 51.5984 178.738 52.043 178.738 52.5817V58.0043H177.436V52.2997C177.436 51.8261 177.283 51.4448 176.976 51.1555C176.668 50.8627 176.272 50.7163 175.788 50.7163C175.455 50.7163 175.145 50.8049 174.855 50.982C174.57 51.1592 174.338 51.405 174.161 51.7195C173.988 52.0304 173.901 52.3901 173.901 52.7986V58.0043H172.621ZM189.385 58.1778C188.583 58.1778 187.89 58.0007 187.308 57.6464C186.73 57.2885 186.283 56.7896 185.969 56.1497C185.658 55.5063 185.503 54.758 185.503 53.9048C185.503 53.0516 185.658 52.2997 185.969 51.649C186.283 50.9947 186.721 50.485 187.281 50.1198C187.845 49.7511 188.503 49.5667 189.255 49.5667C189.689 49.5667 190.117 49.639 190.54 49.7836C190.963 49.9282 191.348 50.1632 191.695 50.4886C192.042 50.8103 192.319 51.2369 192.525 51.7683C192.731 52.2997 192.834 52.954 192.834 53.7313V54.2735H186.414V53.1673H191.532C191.532 52.6974 191.438 52.278 191.25 51.9093C191.066 51.5406 190.802 51.2495 190.459 51.0363C190.119 50.823 189.718 50.7163 189.255 50.7163C188.745 50.7163 188.304 50.8428 187.932 51.0959C187.563 51.3453 187.279 51.6707 187.081 52.072C186.882 52.4732 186.782 52.9034 186.782 53.3625V54.1C186.782 54.729 186.891 55.2623 187.108 55.6997C187.328 56.1335 187.634 56.4643 188.024 56.692C188.414 56.9161 188.868 57.0282 189.385 57.0282C189.721 57.0282 190.025 56.9812 190.296 56.8872C190.571 56.7896 190.808 56.645 191.006 56.4534C191.205 56.2582 191.359 56.016 191.467 55.7268L192.704 56.0738C192.574 56.4932 192.355 56.8619 192.048 57.18C191.74 57.4945 191.361 57.7404 190.909 57.9175C190.457 58.091 189.949 58.1778 189.385 58.1778ZM200.68 51.5406L199.531 51.8659C199.458 51.6743 199.352 51.4881 199.211 51.3074C199.073 51.123 198.885 50.9712 198.647 50.8519C198.408 50.7326 198.103 50.6729 197.73 50.6729C197.221 50.6729 196.796 50.7904 196.456 51.0254C196.12 51.2568 195.952 51.5514 195.952 51.9093C195.952 52.2274 196.068 52.4787 196.299 52.663C196.53 52.8474 196.892 53.001 197.383 53.1239L198.62 53.4276C199.364 53.6084 199.919 53.8849 200.285 54.2573C200.65 54.626 200.832 55.1014 200.832 55.6834C200.832 56.1606 200.695 56.5872 200.42 56.9631C200.149 57.3391 199.769 57.6355 199.281 57.8524C198.793 58.0693 198.226 58.1778 197.579 58.1778C196.729 58.1778 196.026 57.9934 195.469 57.6247C194.913 57.256 194.56 56.7173 194.412 56.0088L195.627 55.7051C195.742 56.1534 195.961 56.4896 196.283 56.7137C196.608 56.9378 197.033 57.0499 197.557 57.0499C198.153 57.0499 198.627 56.9234 198.978 56.6703C199.332 56.4136 199.509 56.1064 199.509 55.7485C199.509 55.4593 199.408 55.2171 199.205 55.0219C199.003 54.823 198.692 54.6748 198.273 54.5772L196.885 54.2518C196.122 54.0711 195.561 53.7909 195.204 53.4113C194.849 53.0281 194.672 52.5492 194.672 51.9744C194.672 51.5044 194.804 51.0887 195.068 50.7272C195.336 50.3657 195.699 50.0819 196.158 49.8758C196.621 49.6698 197.145 49.5667 197.73 49.5667C198.555 49.5667 199.202 49.7475 199.672 50.109C200.145 50.4705 200.482 50.9477 200.68 51.5406ZM208.658 51.5406L207.509 51.8659C207.436 51.6743 207.33 51.4881 207.189 51.3074C207.051 51.123 206.863 50.9712 206.625 50.8519C206.386 50.7326 206.081 50.6729 205.708 50.6729C205.199 50.6729 204.774 50.7904 204.434 51.0254C204.098 51.2568 203.93 51.5514 203.93 51.9093C203.93 52.2274 204.046 52.4787 204.277 52.663C204.508 52.8474 204.87 53.001 205.361 53.1239L206.598 53.4276C207.342 53.6084 207.897 53.8849 208.262 54.2573C208.628 54.626 208.81 55.1014 208.81 55.6834C208.81 56.1606 208.673 56.5872 208.398 56.9631C208.127 57.3391 207.747 57.6355 207.259 57.8524C206.771 58.0693 206.204 58.1778 205.557 58.1778C204.707 58.1778 204.004 57.9934 203.447 57.6247C202.891 57.256 202.538 56.7173 202.39 56.0088L203.604 55.7051C203.72 56.1534 203.939 56.4896 204.261 56.7137C204.586 56.9378 205.011 57.0499 205.535 57.0499C206.131 57.0499 206.605 56.9234 206.956 56.6703C207.31 56.4136 207.487 56.1064 207.487 55.7485C207.487 55.4593 207.386 55.2171 207.183 55.0219C206.981 54.823 206.67 54.6748 206.251 54.5772L204.863 54.2518C204.1 54.0711 203.539 53.7909 203.182 53.4113C202.827 53.0281 202.65 52.5492 202.65 51.9744C202.65 51.5044 202.782 51.0887 203.046 50.7272C203.313 50.3657 203.677 50.0819 204.136 49.8758C204.599 49.6698 205.123 49.5667 205.708 49.5667C206.533 49.5667 207.18 49.7475 207.65 50.109C208.123 50.4705 208.46 50.9477 208.658 51.5406ZM213.188 58.1995C212.66 58.1995 212.181 58.1001 211.751 57.9012C211.32 57.6988 210.979 57.4078 210.726 57.0282C210.473 56.645 210.346 56.1823 210.346 55.64C210.346 55.1628 210.44 54.776 210.628 54.4796C210.816 54.1795 211.067 53.9446 211.382 53.7747C211.696 53.6047 212.043 53.4782 212.423 53.3951C212.806 53.3083 213.191 53.2396 213.578 53.189C214.084 53.1239 214.494 53.0751 214.809 53.0426C215.127 53.0065 215.358 52.9468 215.503 52.8637C215.651 52.7805 215.725 52.6359 215.725 52.4299V52.3865C215.725 51.8514 215.579 51.4357 215.286 51.1393C214.997 50.8428 214.558 50.6946 213.968 50.6946C213.357 50.6946 212.878 50.8284 212.531 51.0959C212.184 51.3634 211.94 51.649 211.799 51.9527L210.585 51.5189C210.802 51.0128 211.091 50.6187 211.452 50.3367C211.817 50.0511 212.215 49.8523 212.645 49.7403C213.079 49.6246 213.506 49.5667 213.925 49.5667C214.193 49.5667 214.5 49.5993 214.847 49.6643C215.198 49.7258 215.536 49.8541 215.861 50.0493C216.19 50.2446 216.463 50.5392 216.68 50.9332C216.897 51.3273 217.005 51.8551 217.005 52.5166V58.0043H215.725V56.8764H215.66C215.574 57.0571 215.429 57.2505 215.226 57.4566C215.024 57.6626 214.755 57.838 214.418 57.9826C214.082 58.1272 213.672 58.1995 213.188 58.1995ZM213.383 57.0499C213.889 57.0499 214.315 56.9505 214.663 56.7517C215.013 56.5528 215.277 56.2962 215.454 55.9816C215.635 55.6671 215.725 55.3364 215.725 54.9893V53.818C215.671 53.8831 215.552 53.9428 215.367 53.997C215.187 54.0476 214.977 54.0928 214.738 54.1325C214.503 54.1687 214.274 54.2012 214.05 54.2302C213.829 54.2555 213.65 54.2771 213.513 54.2952C213.18 54.3386 212.869 54.4091 212.58 54.5067C212.295 54.6007 212.063 54.7435 211.886 54.9351C211.713 55.1231 211.626 55.3797 211.626 55.7051C211.626 56.1497 211.79 56.4859 212.119 56.7137C212.452 56.9378 212.873 57.0499 213.383 57.0499ZM222.703 61.3012C222.085 61.3012 221.553 61.2217 221.109 61.0626C220.664 60.9072 220.293 60.7011 219.997 60.4444C219.704 60.1914 219.471 59.9203 219.297 59.631L220.317 58.9153C220.433 59.0671 220.579 59.2406 220.756 59.4358C220.933 59.6347 221.175 59.8064 221.483 59.951C221.794 60.0992 222.2 60.1733 222.703 60.1733C223.375 60.1733 223.93 60.0106 224.368 59.6853C224.805 59.3599 225.024 58.8502 225.024 58.1561V56.4643H224.915C224.821 56.6161 224.688 56.8041 224.514 57.0282C224.344 57.2487 224.098 57.4457 223.777 57.6193C223.458 57.7892 223.028 57.8741 222.486 57.8741C221.814 57.8741 221.21 57.7151 220.675 57.3969C220.143 57.0788 219.722 56.6161 219.411 56.0088C219.104 55.4014 218.95 54.664 218.95 53.7963C218.95 52.9432 219.1 52.2003 219.4 51.5677C219.701 50.9314 220.118 50.4398 220.653 50.0927C221.188 49.7421 221.806 49.5667 222.508 49.5667C223.05 49.5667 223.48 49.6571 223.798 49.8379C224.12 50.015 224.366 50.2174 224.536 50.4452C224.709 50.6693 224.843 50.8537 224.937 50.9983H225.067V49.6752H226.303V58.2429C226.303 58.9586 226.141 59.5407 225.815 59.9889C225.494 60.4408 225.06 60.7716 224.514 60.9813C223.972 61.1946 223.368 61.3012 222.703 61.3012ZM222.659 56.7245C223.173 56.7245 223.607 56.6071 223.961 56.3721C224.315 56.1371 224.584 55.7991 224.769 55.3581C224.953 54.917 225.045 54.3892 225.045 53.7747C225.045 53.1746 224.955 52.645 224.774 52.1858C224.594 51.7267 224.326 51.367 223.972 51.1067C223.617 50.8465 223.18 50.7163 222.659 50.7163C222.117 50.7163 221.665 50.8537 221.304 51.1284C220.946 51.4032 220.677 51.7719 220.496 52.2346C220.319 52.6974 220.23 53.2107 220.23 53.7747C220.23 54.3531 220.321 54.8646 220.501 55.3092C220.686 55.7503 220.957 56.0973 221.315 56.3504C221.676 56.5998 222.124 56.7245 222.659 56.7245ZM232.138 58.1778C231.336 58.1778 230.643 58.0007 230.061 57.6464C229.483 57.2885 229.036 56.7896 228.722 56.1497C228.411 55.5063 228.256 54.758 228.256 53.9048C228.256 53.0516 228.411 52.2997 228.722 51.649C229.036 50.9947 229.474 50.485 230.034 50.1198C230.598 49.7511 231.256 49.5667 232.008 49.5667C232.442 49.5667 232.87 49.639 233.293 49.7836C233.716 49.9282 234.101 50.1632 234.448 50.4886C234.795 50.8103 235.072 51.2369 235.278 51.7683C235.484 52.2997 235.587 52.954 235.587 53.7313V54.2735H229.167V53.1673H234.285C234.285 52.6974 234.191 52.278 234.004 51.9093C233.819 51.5406 233.555 51.2495 233.212 51.0363C232.872 50.823 232.471 50.7163 232.008 50.7163C231.498 50.7163 231.057 50.8428 230.685 51.0959C230.316 51.3453 230.032 51.6707 229.834 52.072C229.635 52.4732 229.535 52.9034 229.535 53.3625V54.1C229.535 54.729 229.644 55.2623 229.861 55.6997C230.081 56.1335 230.387 56.4643 230.777 56.692C231.167 56.9161 231.621 57.0282 232.138 57.0282C232.474 57.0282 232.778 56.9812 233.049 56.8872C233.324 56.7896 233.561 56.645 233.759 56.4534C233.958 56.2582 234.112 56.016 234.22 55.7268L235.457 56.0738C235.327 56.4932 235.108 56.8619 234.801 57.18C234.493 57.4945 234.114 57.7404 233.662 57.9175C233.21 58.091 232.702 58.1778 232.138 58.1778Z" fill="#BABCBE"/>
<path d="M284.326 48.4072H281.278C281.026 47.3775 280.101 46.6533 279.038 46.6568H276.861C275.799 46.6533 274.873 47.3775 274.621 48.4072H271.575C270.294 48.3286 269.189 49.2935 269.091 50.5708V59.255C269.189 60.5335 270.294 61.4972 271.575 61.4185H284.326C285.605 61.4972 286.711 60.5335 286.809 59.255V50.5708C286.711 49.2935 285.605 48.3286 284.326 48.4072ZM278.004 59.5905C274.402 59.6021 272.141 55.7112 273.93 52.5874C275.72 49.4636 280.22 49.4497 282.03 52.5608C282.443 53.2712 282.662 54.0764 282.664 54.8979V54.9129C282.674 57.4872 280.593 59.5824 278.019 59.5905C277.994 59.5905 277.968 59.5905 277.942 59.5905H278.004Z" fill="#83898D"/>
<path d="M277.941 57.9442C279.616 57.9442 280.973 56.587 280.973 54.9129C280.973 53.2388 279.616 51.8817 277.941 51.8817C276.267 51.8817 274.91 53.2388 274.91 54.9129C274.91 56.587 276.267 57.9442 277.941 57.9442Z" fill="#83898D"/>
<path opacity="0.1" d="M291.974 9.97968H131.641C127.211 9.97968 123.62 13.5709 123.62 18.001V28.3952C123.62 32.8252 127.211 36.4164 131.641 36.4164H291.974C296.404 36.4164 299.996 32.8252 299.996 28.3952V18.001C299.996 13.5709 296.404 9.97968 291.974 9.97968Z" fill="#231F20"/>
<path d="M291.974 9.3688H131.641C127.211 9.3688 123.62 12.96 123.62 17.3901V27.7843C123.62 32.2143 127.211 35.8055 131.641 35.8055H291.974C296.404 35.8055 299.996 32.2143 299.996 27.7843V17.3901C299.996 12.96 296.404 9.3688 291.974 9.3688Z" fill="#DCF8C6"/>
<path d="M247.403 28.9977C247.04 28.9977 246.713 28.9255 246.423 28.7812C246.132 28.6368 245.899 28.4388 245.723 28.1872C245.548 27.9356 245.452 27.649 245.436 27.3273H246.178C246.207 27.6139 246.337 27.8511 246.568 28.0388C246.801 28.2244 247.079 28.3172 247.403 28.3172C247.663 28.3172 247.894 28.2563 248.096 28.1347C248.3 28.013 248.46 27.8459 248.576 27.6335C248.693 27.419 248.752 27.1767 248.752 26.9066C248.752 26.6302 248.691 26.3838 248.569 26.1672C248.45 25.9486 248.285 25.7764 248.074 25.6506C247.864 25.5248 247.624 25.4609 247.354 25.4588C247.16 25.4568 246.961 25.4867 246.757 25.5485C246.552 25.6083 246.384 25.6857 246.252 25.7805L245.535 25.6939L245.918 22.5757H249.21V23.2563H246.562L246.339 25.1247H246.376C246.506 25.0216 246.669 24.936 246.865 24.868C247.061 24.7999 247.265 24.7659 247.477 24.7659C247.865 24.7659 248.211 24.8587 248.514 25.0443C248.819 25.2279 249.058 25.4795 249.231 25.7991C249.407 26.1188 249.494 26.4838 249.494 26.8942C249.494 27.2984 249.404 27.6593 249.222 27.9769C249.043 28.2924 248.795 28.542 248.48 28.7255C248.164 28.907 247.805 28.9977 247.403 28.9977ZM251.268 28.1006C251.115 28.1006 250.984 28.046 250.875 27.9367C250.765 27.8274 250.711 27.6964 250.711 27.5438C250.711 27.3912 250.765 27.2602 250.875 27.1509C250.984 27.0416 251.115 26.987 251.268 26.987C251.42 26.987 251.551 27.0416 251.661 27.1509C251.77 27.2602 251.824 27.3912 251.824 27.5438C251.824 27.6449 251.799 27.7377 251.747 27.8222C251.698 27.9068 251.631 27.9748 251.546 28.0264C251.464 28.0759 251.371 28.1006 251.268 28.1006ZM251.268 24.8958C251.115 24.8958 250.984 24.8412 250.875 24.7319C250.765 24.6226 250.711 24.4916 250.711 24.339C250.711 24.1864 250.765 24.0554 250.875 23.9461C250.984 23.8368 251.115 23.7822 251.268 23.7822C251.42 23.7822 251.551 23.8368 251.661 23.9461C251.77 24.0554 251.824 24.1864 251.824 24.339C251.824 24.4401 251.799 24.5329 251.747 24.6174C251.698 24.702 251.631 24.77 251.546 24.8216C251.464 24.8711 251.371 24.8958 251.268 24.8958ZM253.122 28.9111V28.3543L255.213 26.0651C255.459 25.797 255.661 25.564 255.82 25.366C255.978 25.166 256.096 24.9783 256.172 24.803C256.251 24.6257 256.29 24.4401 256.29 24.2462C256.29 24.0235 256.236 23.8307 256.129 23.6677C256.024 23.5048 255.879 23.379 255.696 23.2903C255.512 23.2017 255.306 23.1573 255.077 23.1573C254.834 23.1573 254.621 23.2078 254.44 23.3089C254.261 23.4079 254.121 23.5471 254.022 23.7265C253.925 23.9059 253.877 24.1163 253.877 24.3576H253.147C253.147 23.9864 253.233 23.6605 253.404 23.38C253.575 23.0996 253.808 22.881 254.103 22.7242C254.4 22.5675 254.733 22.4891 255.102 22.4891C255.473 22.4891 255.802 22.5675 256.089 22.7242C256.375 22.881 256.6 23.0924 256.763 23.3584C256.926 23.6244 257.008 23.9204 257.008 24.2462C257.008 24.4792 256.965 24.7071 256.881 24.9299C256.798 25.1505 256.654 25.397 256.448 25.6692C256.243 25.9393 255.96 26.2693 255.597 26.6591L254.174 28.1811V28.2305H257.119V28.9111H253.122ZM260.463 28.9977C259.997 28.9977 259.6 28.8709 259.272 28.6172C258.944 28.3615 258.693 27.9913 258.52 27.5067C258.347 27.02 258.26 26.4322 258.26 25.7434C258.26 25.0587 258.347 24.4741 258.52 23.9894C258.696 23.5027 258.947 23.1315 259.275 22.8758C259.605 22.618 260.001 22.4891 260.463 22.4891C260.925 22.4891 261.32 22.618 261.648 22.8758C261.978 23.1315 262.229 23.5027 262.402 23.9894C262.578 24.4741 262.665 25.0587 262.665 25.7434C262.665 26.4322 262.579 27.02 262.406 27.5067C262.232 27.9913 261.982 28.3615 261.654 28.6172C261.326 28.8709 260.929 28.9977 260.463 28.9977ZM260.463 28.3172C260.925 28.3172 261.284 28.0944 261.539 27.649C261.795 27.2035 261.923 26.5683 261.923 25.7434C261.923 25.1949 261.864 24.7277 261.747 24.3421C261.631 23.9565 261.464 23.6626 261.246 23.4605C261.029 23.2584 260.768 23.1573 260.463 23.1573C260.005 23.1573 259.647 23.3831 259.389 23.8348C259.132 24.2844 259.003 24.9206 259.003 25.7434C259.003 26.292 259.061 26.7581 259.176 27.1417C259.292 27.5252 259.458 27.8171 259.674 28.0171C259.893 28.2171 260.156 28.3172 260.463 28.3172ZM266.402 28.9111V22.5757H268.543C269.04 22.5757 269.446 22.6655 269.762 22.8449C270.079 23.0222 270.314 23.2625 270.467 23.5656C270.62 23.8688 270.696 24.207 270.696 24.5803C270.696 24.9536 270.62 25.2928 270.467 25.598C270.317 25.9033 270.083 26.1466 269.768 26.3281C269.452 26.5075 269.048 26.5972 268.555 26.5972H267.021V25.9167H268.531C268.871 25.9167 269.144 25.8579 269.35 25.7403C269.557 25.6228 269.706 25.464 269.799 25.2639C269.894 25.0618 269.941 24.834 269.941 24.5803C269.941 24.3266 269.894 24.0998 269.799 23.8997C269.706 23.6997 269.556 23.543 269.347 23.4295C269.139 23.314 268.863 23.2563 268.518 23.2563H267.169V28.9111H266.402ZM271.932 22.5757H272.847L275 27.8346H275.075L277.228 22.5757H278.143V28.9111H277.426V24.0977H277.364L275.384 28.9111H274.691L272.711 24.0977H272.649V28.9111H271.932V22.5757Z" fill="#7EAF8D"/>
<path d="M283.71 29.3844L280.454 26.1299L281.318 25.2656L283.609 27.5564L288.854 21.0299L289.807 21.7947L283.71 29.3844Z" fill="#0FAEE5"/>
<path d="M287.547 29.3844L285.961 27.7994L286.825 26.9351L287.448 27.5564L292.691 21.0299L293.644 21.7947L287.547 29.3844Z" fill="#0FAEE5"/>
<path d="M47.9667 9.33575C30.7202 9.33575 16.6946 23.3553 16.6875 40.5897C16.6795 46.4745 18.3359 52.2412 21.467 57.2236L22.2109 58.4066L19.0525 69.9389L30.8867 66.8371L32.0294 67.5134C36.828 70.3619 42.3313 71.8679 47.9425 71.8719H47.9546C65.188 71.8719 79.2136 57.8494 79.2207 40.6139C79.2469 32.3187 75.9523 24.3546 70.0715 18.5021C64.2231 12.6163 56.263 9.31557 47.9667 9.33575Z" fill="url(#paint0_linear_279_1305)"/>
<path fill-rule="evenodd" clip-rule="evenodd" d="M38.5533 24.8653C37.8477 23.3007 37.1068 23.2684 36.4386 23.2412L34.6368 23.22C34.009 23.22 32.9915 23.4562 32.1305 24.3959C31.2685 25.3367 28.8398 27.6099 28.8398 32.2349C28.8398 36.859 32.2082 41.3276 32.6776 41.9564C33.1469 42.5833 39.1801 52.3754 48.734 56.1425C56.674 59.2736 58.289 58.6519 60.013 58.4944C61.7371 58.3389 65.5748 56.2222 66.3571 54.0268C67.1404 51.8313 67.1404 49.9518 66.9052 49.5582C66.671 49.1645 66.0452 48.9314 65.1034 48.461C64.1627 47.9906 59.5417 45.7174 58.6806 45.4035C57.8186 45.0886 57.1938 44.9331 56.566 45.8739C55.9381 46.8146 54.1394 48.9313 53.5903 49.5582C53.0422 50.186 52.4951 50.2648 51.5533 49.7944C50.6125 49.324 47.5864 48.3318 43.9949 45.129C41.2009 42.6378 39.3154 39.5611 38.7663 38.6204C38.2161 37.6806 38.7067 37.1709 39.1781 36.7035C39.601 36.2816 40.1188 35.6053 40.5892 35.0562C41.0606 34.5081 41.215 34.1164 41.528 33.4896C41.8409 32.8638 41.6844 32.3137 41.4492 31.8443C41.2151 31.3739 39.389 26.7246 38.5533 24.8663" fill="white"/>
<path d="M452.138 133.908C470.45 133.908 485.294 119.064 485.294 100.752C485.294 82.4404 470.45 67.5958 452.138 67.5958C433.826 67.5958 418.981 82.4404 418.981 100.752C418.981 119.064 433.826 133.908 452.138 133.908Z" fill="url(#paint1_linear_279_1305)"/>
<path d="M441.426 103.176L445.359 114.064C445.359 114.064 445.851 115.082 446.378 115.082C446.905 115.082 454.738 106.934 454.738 106.934L463.448 90.1097L441.566 100.365L441.426 103.176Z" fill="#C8DAEA"/>
<path d="M446.641 105.968L445.886 113.994C445.886 113.994 445.57 116.453 448.029 113.994C450.487 111.534 452.84 109.638 452.84 109.638" fill="#A9C6D8"/>
<path d="M441.497 103.564L433.405 100.928C433.405 100.928 432.438 100.535 432.749 99.6458C432.813 99.4622 432.943 99.3063 433.329 99.038C435.123 97.7882 466.515 86.5049 466.515 86.5049C466.515 86.5049 467.401 86.2061 467.924 86.4048C468.188 86.4862 468.387 86.7031 468.445 86.9725C468.502 87.2063 468.525 87.4468 468.515 87.6868C468.513 87.8946 468.488 88.0873 468.469 88.3891C468.277 91.474 462.556 114.498 462.556 114.498C462.556 114.498 462.213 115.845 460.987 115.891C460.378 115.911 459.787 115.682 459.35 115.258C456.943 113.188 448.624 107.597 446.786 106.367C446.702 106.31 446.647 106.22 446.635 106.119C446.609 105.989 446.75 105.829 446.75 105.829C446.75 105.829 461.235 92.953 461.621 91.6013C461.651 91.4965 461.538 91.4449 461.387 91.4907C460.425 91.8447 443.746 102.377 441.906 103.539C441.773 103.58 441.633 103.588 441.497 103.564Z" fill="white"/>
<g filter="url(#filter0_d_279_1305)">
<path d="M410.626 114.367H224.062V136.997H410.626V114.367Z" fill="#F6F6F6"/>
</g>
<path d="M238.906 126.547L236.153 129.3C234.834 130.619 232.695 130.619 231.376 129.3C230.057 127.981 230.057 125.842 231.376 124.522L235.082 120.817C235.961 119.937 237.388 119.937 238.269 120.817C239.148 121.698 239.148 123.125 238.269 124.004L234.447 127.826C234.033 128.24 233.363 128.24 232.949 127.826C232.535 127.412 232.535 126.742 232.949 126.329L235.819 123.459C235.964 123.314 235.964 123.077 235.819 122.932C235.673 122.786 235.436 122.786 235.291 122.932L232.422 125.801C231.717 126.506 231.717 127.649 232.422 128.354C233.127 129.059 234.269 129.059 234.974 128.354L238.796 124.532C239.968 123.36 239.968 121.461 238.796 120.29C237.624 119.118 235.725 119.118 234.554 120.29L230.848 123.995C229.238 125.606 229.238 128.217 230.848 129.827C232.459 131.438 235.071 131.438 236.681 129.827L239.433 127.074C239.579 126.928 239.579 126.692 239.433 126.547C239.288 126.401 239.051 126.401 238.906 126.547Z" fill="#858E99"/>
<path d="M381.522 117.6H253.166C248.77 117.6 245.206 121.164 245.206 125.56V125.561C245.206 129.957 248.77 133.521 253.166 133.521H381.522C385.918 133.521 389.482 129.957 389.482 125.561V125.56C389.482 121.164 385.918 117.6 381.522 117.6Z" fill="white" stroke="#D1D1D6" stroke-width="0.497503"/>
<path d="M258.057 128.297V122.337H257.194L255.154 127.31H255.088L253.047 122.337H252.185V128.297H252.878V123.745H252.928L254.807 128.297H255.434L257.314 123.745H257.363V128.297H258.057ZM262.235 127.144C262.05 127.537 261.661 127.748 261.088 127.748C260.332 127.748 259.84 127.19 259.803 126.311V126.277H263.004V126.005C263.004 124.621 262.272 123.766 261.071 123.766C259.848 123.766 259.064 124.675 259.064 126.075C259.064 127.483 259.836 128.375 261.071 128.375C262.046 128.375 262.74 127.904 262.946 127.144H262.235ZM261.063 124.394C261.769 124.394 262.24 124.915 262.256 125.703H259.803C259.857 124.915 260.353 124.394 261.063 124.394ZM263.817 125.063C263.817 125.708 264.196 126.067 265.031 126.269L265.795 126.455C266.269 126.571 266.501 126.777 266.501 127.082C266.501 127.491 266.071 127.776 265.472 127.776C264.902 127.776 264.547 127.537 264.427 127.161H263.697C263.775 127.9 264.456 128.375 265.447 128.375C266.459 128.375 267.232 127.826 267.232 127.029C267.232 126.389 266.827 126.025 265.988 125.823L265.303 125.658C264.778 125.53 264.531 125.34 264.531 125.034C264.531 124.638 264.944 124.37 265.472 124.37C266.009 124.37 266.356 124.605 266.451 124.96H267.153C267.058 124.229 266.41 123.766 265.476 123.766C264.531 123.766 263.817 124.323 263.817 125.063ZM267.962 125.063C267.962 125.708 268.341 126.067 269.176 126.269L269.94 126.455C270.415 126.571 270.646 126.777 270.646 127.082C270.646 127.491 270.217 127.776 269.618 127.776C269.047 127.776 268.693 127.537 268.573 127.161H267.842C267.921 127.9 268.602 128.375 269.593 128.375C270.605 128.375 271.377 127.826 271.377 127.029C271.377 126.389 270.972 126.025 270.134 125.823L269.448 125.658C268.924 125.53 268.676 125.34 268.676 125.034C268.676 124.638 269.089 124.37 269.618 124.37C270.154 124.37 270.502 124.605 270.597 124.96H271.299C271.204 124.229 270.555 123.766 269.622 123.766C268.676 123.766 267.962 124.323 267.962 125.063ZM273.532 128.375C274.126 128.375 274.614 128.115 274.903 127.64H274.969V128.297H275.646V125.249C275.646 124.323 275.039 123.766 273.953 123.766C273.003 123.766 272.301 124.237 272.207 124.952H272.924C273.024 124.601 273.396 124.398 273.928 124.398C274.593 124.398 274.936 124.7 274.936 125.249V125.654L273.652 125.732C272.615 125.794 272.028 126.252 272.028 127.05C272.028 127.863 272.669 128.375 273.532 128.375ZM273.664 127.752C273.148 127.752 272.764 127.487 272.764 127.033C272.764 126.587 273.061 126.352 273.738 126.307L274.936 126.228V126.637C274.936 127.273 274.395 127.752 273.664 127.752ZM278.594 130.006C279.808 130.006 280.577 129.371 280.577 128.375V123.845H279.898V124.551H279.833C279.577 124.072 279.028 123.766 278.404 123.766C277.26 123.766 276.538 124.671 276.538 126.005C276.538 127.339 277.252 128.23 278.404 128.23C279.015 128.23 279.519 127.954 279.8 127.463H279.866V128.338C279.866 128.995 279.391 129.387 278.594 129.387C277.954 129.387 277.557 129.152 277.479 128.788H276.727C276.835 129.523 277.52 130.006 278.594 130.006ZM278.561 127.603C277.735 127.603 277.273 126.975 277.273 126.005C277.273 125.034 277.735 124.407 278.561 124.407C279.383 124.407 279.883 125.034 279.883 126.005C279.883 126.975 279.387 127.603 278.561 127.603ZM284.664 127.144C284.478 127.537 284.09 127.748 283.516 127.748C282.76 127.748 282.269 127.19 282.232 126.311V126.277H285.432V126.005C285.432 124.621 284.701 123.766 283.499 123.766C282.277 123.766 281.492 124.675 281.492 126.075C281.492 127.483 282.264 128.375 283.499 128.375C284.474 128.375 285.168 127.904 285.374 127.144H284.664ZM283.491 124.394C284.197 124.394 284.668 124.915 284.684 125.703H282.232C282.285 124.915 282.781 124.394 283.491 124.394Z" fill="#AEAEB2"/>
<path fill-rule="evenodd" clip-rule="evenodd" d="M380.457 120.336C381.534 120.336 385.7 124.511 385.739 125.507C385.608 128.135 383.438 130.278 380.776 130.278C378.029 130.278 375.801 128.05 375.801 125.303C375.801 122.695 377.904 120.547 380.457 120.336ZM380.066 121.134C378.069 121.471 376.547 123.21 376.547 125.303C376.547 127.639 378.441 129.532 380.776 129.532C382.87 129.532 384.608 128.01 384.946 126.012L384.976 126C384.526 126.192 384.031 126.298 383.513 126.298C381.452 126.298 379.781 124.627 379.781 122.566C379.781 122.108 379.864 121.668 380.015 121.262L380.066 121.134ZM380.782 121.358L380.848 121.219L380.912 121.251C381.002 121.298 381.104 121.358 381.217 121.431C381.682 121.734 382.217 122.274 382.785 122.848C382.86 122.924 382.935 123.001 383.013 123.077C383.089 123.154 383.164 123.23 383.239 123.305C383.809 123.875 384.335 124.402 384.635 124.869C384.726 125.01 384.797 125.135 384.845 125.238C384.436 125.443 383.983 125.552 383.513 125.552C381.864 125.552 380.528 124.216 380.528 122.566C380.528 122.143 380.616 121.733 380.782 121.358Z" fill="#858E99"/>
<path fill-rule="evenodd" clip-rule="evenodd" d="M399.93 119.341C401.304 119.341 402.418 120.455 402.418 121.83V125.312C402.418 126.686 401.304 127.799 399.93 127.799C398.556 127.799 397.442 126.686 397.442 125.312V121.83C397.442 120.455 398.556 119.341 399.93 119.341ZM404.159 124.938C404.364 124.938 404.532 125.106 404.532 125.312C404.532 127.602 402.666 129.471 400.303 129.651L400.303 131.282C400.303 131.488 400.136 131.655 399.93 131.655C399.741 131.655 399.585 131.514 399.56 131.332L399.557 131.282V129.651C397.194 129.471 395.328 127.602 395.328 125.312C395.328 125.106 395.495 124.938 395.701 124.938C395.907 124.938 396.074 125.106 396.074 125.312C396.074 127.299 397.795 128.919 399.93 128.919C402.064 128.919 403.785 127.299 403.785 125.312C403.785 125.106 403.953 124.938 404.159 124.938ZM398.189 121.83C398.189 120.868 398.968 120.088 399.93 120.088C400.891 120.088 401.671 120.868 401.671 121.83V125.312C401.671 126.273 400.891 127.053 399.93 127.053C398.968 127.053 398.189 126.273 398.189 125.312V121.83Z" fill="#858E99"/>
<path d="M237.916 110.559H237.917L362.31 110.308C367.375 110.297 371.472 107.671 371.472 104.433V92.7741C371.472 89.5293 367.357 86.899 362.281 86.899H238.423C233.347 86.899 229.232 89.5293 229.232 92.7741V105.08C229.232 105.169 229.236 105.259 229.243 105.347C229.267 106.228 229.237 106.951 229.152 107.519C229.068 108.09 228.929 108.496 228.743 108.746C228.394 109.218 227.642 109.684 226.466 110.14L226.286 110.208L226.278 110.212L226.271 110.216L226.246 110.229L226.238 110.233L226.231 110.238C226.169 110.284 226.156 110.352 226.208 110.407C226.245 110.446 226.309 110.471 226.38 110.476C228.867 110.629 230.93 110.269 232.555 109.391C234.032 110.122 235.894 110.559 237.916 110.559Z" fill="white" stroke="#B5CADD" stroke-width="0.31158"/>
<path d="M348.462 104.795H349.065L350.092 99.9648H349.493L348.01 100.889L347.863 101.578L349.279 100.701H349.333L348.462 104.795ZM351.662 104.795H352.265L353.292 99.9648H352.693L351.21 100.889L351.063 101.578L352.478 100.701H352.532L351.662 104.795ZM354.892 101.518C355.133 101.518 355.327 101.321 355.327 101.083C355.327 100.842 355.133 100.648 354.892 100.648C354.654 100.648 354.457 100.842 354.457 101.083C354.457 101.321 354.654 101.518 354.892 101.518ZM354.34 104.109C354.58 104.109 354.775 103.911 354.775 103.673C354.775 103.433 354.58 103.238 354.34 103.238C354.102 103.238 353.905 103.433 353.905 103.673C353.905 103.911 354.102 104.109 354.34 104.109ZM357.948 104.795H358.537L358.751 103.794H359.437L359.551 103.255H358.865L359.564 99.9648H358.647C357.506 101.257 356.492 102.459 355.9 103.221L355.809 103.794H358.162L357.948 104.795ZM356.545 103.218C357.328 102.241 358.172 101.244 358.818 100.524H358.858L358.279 103.258H356.539L356.545 103.218ZM361.934 104.908C363.143 104.908 364.127 103.503 364.127 101.592C364.127 100.551 363.568 99.8514 362.694 99.8514C361.492 99.8514 360.495 101.28 360.495 103.182C360.495 104.219 361.054 104.908 361.934 104.908ZM361.097 103.172C361.097 101.652 361.817 100.384 362.657 100.384C363.202 100.384 363.524 100.848 363.524 101.595C363.524 103.125 362.814 104.38 361.978 104.38C361.419 104.38 361.097 103.921 361.097 103.172Z" fill="#8E8E93"/>
<path d="M168.999 319.023L159.288 328.734H149.577L141.079 337.232V328.734H130.154V292.317H168.999V319.023Z" fill="white"/>
<path d="M127.727 287.462L115.588 299.601V343.301H130.155V355.44L142.294 343.301H152.005L173.855 321.451V287.462H127.727ZM168.999 319.023L159.288 328.734H149.577L141.08 337.232V328.734H130.155V292.317H168.999V319.023Z" fill="#9146FF"/>
<path d="M161.716 300.815H156.86V315.381H161.716V300.815Z" fill="#9146FF"/>
<path d="M148.363 300.815H143.508V315.381H148.363V300.815Z" fill="#9146FF"/>
<path d="M49.5899 285.362C32.0536 285.362 18.4629 298.208 18.4629 315.556C18.4629 324.63 22.1834 332.472 28.2394 337.889C28.7473 338.347 29.0538 338.979 29.0782 339.662L29.2478 345.199C29.304 346.965 31.1268 348.111 32.7425 347.403L38.9175 344.679C39.4441 344.447 40.0261 344.403 40.5772 344.553C43.4149 345.337 46.4392 345.75 49.5899 345.75C67.1261 345.75 80.7169 332.904 80.7169 315.556C80.7169 298.208 67.1261 285.362 49.5899 285.362Z" fill="url(#paint2_linear_279_1305)"/>
<path d="M30.9006 324.387L40.0445 309.881C41.498 307.577 44.6169 307 46.7967 308.636L54.0673 314.09C54.7374 314.591 55.652 314.585 56.3156 314.084L66.1361 306.631C67.4453 305.636 69.1613 307.207 68.2784 308.597L59.141 323.096C57.6876 325.402 54.5687 325.977 52.3889 324.343L45.1182 318.887C44.4473 318.387 43.5335 318.393 42.8691 318.894L33.0429 326.354C31.7337 327.349 30.0177 325.777 30.9006 324.387Z" fill="white"/>
<path d="M465.27 297.635C465.313 298.254 465.313 298.873 465.313 299.498C465.313 318.531 450.823 340.481 424.329 340.481V340.47C416.503 340.481 408.839 338.24 402.25 334.013C403.388 334.149 404.532 334.218 405.678 334.221C412.164 334.226 418.465 332.05 423.568 328.043C417.404 327.926 411.999 323.907 410.111 318.04C412.27 318.456 414.495 318.371 416.614 317.792C409.894 316.434 405.059 310.53 405.059 303.673C405.059 303.611 405.059 303.551 405.059 303.491C407.062 304.606 409.304 305.225 411.597 305.293C405.268 301.064 403.317 292.644 407.139 286.061C414.452 295.06 425.242 300.53 436.825 301.109C435.664 296.106 437.25 290.864 440.992 287.347C446.793 281.894 455.918 282.173 461.371 287.972C464.597 287.336 467.689 286.152 470.518 284.475C469.443 287.809 467.192 290.642 464.186 292.441C467.041 292.105 469.831 291.34 472.458 290.174C470.524 293.072 468.088 295.596 465.27 297.635Z" fill="#1D9BF0"/>
<path d="M241.418 347.553C259.729 347.553 274.574 332.709 274.574 314.397C274.574 296.086 259.729 281.241 241.418 281.241C223.106 281.241 208.262 296.086 208.262 314.397C208.262 332.709 223.106 347.553 241.418 347.553Z" fill="#F5C400"/>
<path d="M230.024 307.636C230.024 307.636 230.062 312.991 232.813 318.532C235.637 323.865 239.534 327.29 242.748 328.654C246.068 327.102 249.276 324.407 251.027 321.504H241.911C239.552 319.549 237.695 316.305 237.269 312.556H264.013C262.696 318.584 259.896 324.066 257.231 327.557C253.53 332.397 248.513 336.091 242.767 338.205H242.682C233.091 334.383 227.93 328.363 224.525 321.57C222.34 317.218 220.058 309.315 220.058 298.689H265.219C265.225 301.682 265.024 304.671 264.616 307.636H230.024Z" fill="#111820"/>
<path d="M320.828 321.436C320.828 324.969 317.972 327.826 314.438 327.826C310.904 327.826 308.048 324.969 308.048 321.436C308.048 317.902 310.904 315.046 314.438 315.046H320.828V321.436Z" fill="#E01E5A"/>
<path d="M324.023 321.436C324.023 317.902 326.879 315.046 330.413 315.046C333.946 315.046 336.802 317.902 336.802 321.436V337.41C336.802 340.944 333.946 343.8 330.413 343.8C326.879 343.8 324.023 340.944 324.023 337.41V321.436Z" fill="#E01E5A"/>
<path d="M330.413 295.78C326.879 295.78 324.023 292.924 324.023 289.39C324.023 285.856 326.879 283 330.413 283C333.946 283 336.802 285.856 336.802 289.39V295.78H330.413Z" fill="#36C5F0"/>
<path d="M330.413 299.023C333.946 299.023 336.802 301.879 336.802 305.413C336.802 308.946 333.946 311.803 330.413 311.803H314.39C310.856 311.803 308 308.946 308 305.413C308 301.879 310.856 299.023 314.39 299.023H330.413Z" fill="#36C5F0"/>
<path d="M356.021 305.413C356.021 301.879 358.877 299.023 362.411 299.023C365.945 299.023 368.801 301.879 368.801 305.413C368.801 308.946 365.945 311.803 362.411 311.803H356.021V305.413Z" fill="#2EB67D"/>
<path d="M352.825 305.413C352.825 308.947 349.969 311.803 346.435 311.803C342.902 311.803 340.046 308.947 340.046 305.413V289.39C340.046 285.856 342.902 283 346.435 283C349.969 283 352.825 285.856 352.825 289.39V305.413Z" fill="#2EB67D"/>
<path d="M346.435 331.021C349.969 331.021 352.825 333.877 352.825 337.41C352.825 340.944 349.969 343.8 346.435 343.8C342.902 343.8 340.046 340.944 340.046 337.41V331.021H346.435Z" fill="#ECB22E"/>
<path d="M346.435 327.826C342.902 327.826 340.046 324.969 340.046 321.436C340.046 317.902 342.902 315.046 346.435 315.046H362.458C365.992 315.046 368.848 317.902 368.848 321.436C368.848 324.969 365.992 327.826 362.458 327.826H346.435Z" fill="#ECB22E"/>
</g>
<defs>
<filter id="filter0_d_279_1305" x="224.062" y="114.202" width="186.563" height="22.7945" filterUnits="userSpaceOnUse" color-interpolation-filters="sRGB">
<feFlood flood-opacity="0" result="BackgroundImageFix"/>
<feColorMatrix in="SourceAlpha" type="matrix" values="0 0 0 0 0 0 0 0 0 0 0 0 0 0 0 0 0 0 127 0" result="hardAlpha"/>
<feOffset dy="-0.164176"/>
<feColorMatrix type="matrix" values="0 0 0 0 0.65098 0 0 0 0 0.65098 0 0 0 0 0.666667 0 0 0 1 0"/>
<feBlend mode="normal" in2="BackgroundImageFix" result="effect1_dropShadow_279_1305"/>
<feBlend mode="normal" in="SourceGraphic" in2="effect1_dropShadow_279_1305" result="shape"/>
</filter>
<linearGradient id="paint0_linear_279_1305" x1="47.3181" y1="13.0882" x2="47.635" y2="66.5291" gradientUnits="userSpaceOnUse">
<stop stop-color="#57D163"/>
<stop offset="1" stop-color="#23B33A"/>
</linearGradient>
<linearGradient id="paint1_linear_279_1305" x1="452.137" y1="133.908" x2="452.137" y2="67.5955" gradientUnits="userSpaceOnUse">
<stop stop-color="#1D93D2"/>
<stop offset="1" stop-color="#38B0E3"/>
</linearGradient>
<linearGradient id="paint2_linear_279_1305" x1="49.5899" y1="285.362" x2="49.5899" y2="347.615" gradientUnits="userSpaceOnUse">
<stop stop-color="#00B2FF"/>
<stop offset="0.614583" stop-color="#006AFF"/>
</linearGradient>
<clipPath id="clip0_279_1305">
<rect width="500.615" height="380.074" fill="white"/>
</clipPath>
</defs>
</svg>
