<svg xmlns:xlink="http://www.w3.org/1999/xlink" xmlns="http://www.w3.org/2000/svg" viewBox="0 0 90 90" width="90"  height="90" ><defs><style>.a,.b{fill:#fff;}.a{opacity:0.5;}</style></defs><title>icon-go-fill</title><path class="a" d="M10.9,26.77a2.9,2.9,0,1,1,3-4.91,32.56,32.56,0,0,1,3.9-4.43c.16-.15.35-.3.53-.45a10.19,10.19,0,0,0-6.71-2.5A10,10,0,0,0,1.5,24.32a9.9,9.9,0,0,0,7,9.35A31.92,31.92,0,0,1,10.9,26.77Z"/><path class="a" d="M78.4,12.43a10.06,10.06,0,0,0-7,2.85l.13.1A31.42,31.42,0,0,1,76,19.75a3,3,0,0,1,1.43-.38,3,3,0,0,1,2,5.34,30.94,30.94,0,0,1,2.82,7.16A10.09,10.09,0,0,0,78.4,12.43Z"/><path class="b" d="M41.72,52.67a6.27,6.27,0,0,1-1.3.19v2.51a3.07,3.07,0,0,0,3.07,3.07,1.39,1.39,0,0,0,1.39-1.39V51.82Z"/><path class="b" d="M49.24,52.67l-3-.8v4.31a1.52,1.52,0,0,0,1.52,1.52h.57a2.39,2.39,0,0,0,2.38-2.38V52.87A6.14,6.14,0,0,1,49.24,52.67Z"/><path class="b" d="M51.44,43.94a4.16,4.16,0,0,1-1.55,1.36l-.08,0a9.94,9.94,0,0,1-8.73,0L41,45.29A4,4,0,0,1,39.46,44a4.26,4.26,0,0,0-2.86,3.87,3,3,0,0,0,1.21,2.36,3.89,3.89,0,0,0,2.36.78,4.29,4.29,0,0,0,1.06-.14l3.69-1a2.36,2.36,0,0,1,1.12,0l3.7,1a4,4,0,0,0,3.41-.64,3,3,0,0,0,1.22-2.36A4.26,4.26,0,0,0,51.44,43.94Z"/><path class="a" d="M80,39.85a28,28,0,0,0-10.59-22,22.84,22.84,0,0,0-6.87-3.35,56.32,56.32,0,0,0-15.74-2.23,58.51,58.51,0,0,0-12.44,1.35C26,15.45,18.3,19.29,14.17,27.2A30,30,0,0,0,10.8,41V75.56A2.17,2.17,0,0,0,13,77.73H77.85A2.17,2.17,0,0,0,80,75.56ZM25,36a2.52,2.52,0,1,1,2.52-2.52A2.52,2.52,0,0,1,25,36Zm24.21,7.84-.08,0a8.24,8.24,0,0,1-7.29,0l-.09,0A2.4,2.4,0,0,1,41.07,40h0l.21-.18a3.73,3.73,0,0,1,.56-.32l.32-.14a6.34,6.34,0,0,1,.73-.26,8.36,8.36,0,0,1,2.28-.31h.54A8.38,8.38,0,0,1,48,39.1a6.18,6.18,0,0,1,.72.26,3.14,3.14,0,0,1,1.09.64,2.38,2.38,0,0,1,.7,1.54A2.41,2.41,0,0,1,49.17,43.84Zm2.69-9.08a2.52,2.52,0,1,1,2.52-2.52A2.52,2.52,0,0,1,51.86,34.76Z"/><path class="b" d="M31.5,22A9.46,9.46,0,1,0,41,31.44,9.45,9.45,0,0,0,31.5,22ZM25,36a2.52,2.52,0,1,1,2.52-2.52A2.52,2.52,0,0,1,25,36Z"/><path class="b" d="M58.64,21.1a9.45,9.45,0,0,0-9.45,9.46,9.8,9.8,0,0,0,.15,1.64,2.54,2.54,0,1,1,.27,1.16,9.46,9.46,0,1,0,9-12.26Z"/></svg>