<svg xmlns:xlink="http://www.w3.org/1999/xlink" xmlns="http://www.w3.org/2000/svg" viewBox="0 0 90 90" width="90"  height="90" ><defs><style>.a,.b{fill:#fff;}.b{opacity:0.5;}</style></defs><title>icon-ruby-fill</title><path class="a" d="M57.43,41H32.63L43.89,76a1.18,1.18,0,0,0,2.24,0Z"/><polygon class="a" points="33.09 37.88 56.91 37.88 45 18.58 33.09 37.88"/><polygon class="a" points="71.32 17.19 47.76 17.19 59.54 36.29 71.32 17.19"/><path class="b" d="M27.83,37.88,15.88,18.51,3.15,37.81a.16.16,0,0,0,0,.07Z"/><path class="a" d="M86.89,37.88a.16.16,0,0,0,0-.07L74.12,18.51l-12,19.37Z"/><path class="a" d="M51.9,75.34,86.06,41H60.66L50,74.15A1.17,1.17,0,0,0,51.9,75.34Z"/><polygon class="b" points="42.24 17.19 18.68 17.19 30.46 36.29 42.24 17.19"/><path class="b" d="M3.94,41,38.13,75.37a1.17,1.17,0,0,0,1.95-1.18L29.4,41Z"/></svg>