<svg xmlns:xlink="http://www.w3.org/1999/xlink" xmlns="http://www.w3.org/2000/svg" viewBox="0 0 90 90" width="90"  height="90" ><defs><style>.a,.b{fill:#fff;}.b{opacity:0.7;}</style></defs><title>icon-rust-fill</title><path class="a" d="M65.73,55.09c-2.53,0-2.87-1-3.2-2l0-.15c-.82-4.54-2.12-5.91-3.86-7.34l-1.13-.93C62,43.11,65,39.9,65,36c0-4.15-2.93-6.71-4.68-7.87a13.46,13.46,0,0,0-6.41-2.11H23a29.09,29.09,0,0,0-5.26,8.85h8.72V56.17H18.15A29.2,29.2,0,0,0,23,63.94H44.72a.57.57,0,0,0,.28,0,.24.24,0,0,0,0-.11V56.32c0-.08,0-.16-.31-.16h-7.4V49h8c.92,0,4,.31,5,4.3.1.41.25,1.14.42,2l0,.14a40.07,40.07,0,0,0,1,4.3l.06.19c.48,1.5,1.3,4,5.61,4h7.88A7.55,7.55,0,0,0,67,63.73,28.88,28.88,0,0,0,73.25,51,10.23,10.23,0,0,1,65.73,55.09ZM47,41.94H37.48a1,1,0,0,1-1-1V35.27a1,1,0,0,1,.95-1H47.7c1.2,0,4.69,1,4.69,4C52.39,40.81,49.66,41.94,47,41.94Z"/><path class="b" d="M87.45,47.42,90,45l-2.55-2.42a60.71,60.71,0,0,1-4.72-5l-.09-.47a56.59,56.59,0,0,1,2.41-6.4l1.46-3.3-3.4-1.2A55.45,55.45,0,0,1,77,23.66c0-.09-.11-.17-.17-.26a51.28,51.28,0,0,1-.07-6.64l.17-3.66-3.66.17a51.28,51.28,0,0,1-6.64-.07L66.34,13a53.57,53.57,0,0,1-2.56-6.14l-1.2-3.4L59.28,5a56.59,56.59,0,0,1-6.4,2.41l-.46-.09a57.94,57.94,0,0,1-5-4.72L45,0,42.58,2.55a57.94,57.94,0,0,1-5,4.72l-.46.09A56.59,56.59,0,0,1,30.72,5l-3.3-1.46-1.2,3.4A55.45,55.45,0,0,1,23.66,13l-.26.17a51.28,51.28,0,0,1-6.64.07L13.1,13.1l.17,3.66a53.16,53.16,0,0,1-.07,6.64c-.06.09-.12.17-.17.26a55.45,55.45,0,0,1-6.14,2.56l-3.4,1.2L5,30.72a56.59,56.59,0,0,1,2.41,6.4l-.09.46a57.94,57.94,0,0,1-4.72,5L0,45l2.55,2.42a57.94,57.94,0,0,1,4.72,5l.09.46A56.59,56.59,0,0,1,5,59.28l-1.46,3.3,3.4,1.2A53.57,53.57,0,0,1,13,66.34c.05.09.11.17.17.26a53.16,53.16,0,0,1,.07,6.64L13.1,76.9l3.66-.17a51.28,51.28,0,0,1,6.64.07l.26.17a55.45,55.45,0,0,1,2.56,6.14l1.19,3.38,3.29-1.43c2.2-1,4.91-2,6.28-2.45l.6.12a57.94,57.94,0,0,1,5,4.72L45,90l2.42-2.55a60.71,60.71,0,0,1,5-4.72l.48-.09a57.29,57.29,0,0,1,6.39,2.41l3.3,1.46,1.2-3.4A53.57,53.57,0,0,1,66.34,77l.26-.17a51.28,51.28,0,0,1,6.64-.07l3.66.17-.17-3.66a51.28,51.28,0,0,1,.07-6.64c.06-.09.12-.17.17-.26a55.45,55.45,0,0,1,6.14-2.56l3.4-1.2-1.46-3.3a56.59,56.59,0,0,1-2.41-6.4l.09-.46A57.94,57.94,0,0,1,87.45,47.42ZM44.9,77.33A32.33,32.33,0,1,1,77.22,45,32.36,32.36,0,0,1,44.9,77.33Z"/></svg>