<svg xmlns:xlink="http://www.w3.org/1999/xlink" xmlns="http://www.w3.org/2000/svg" viewBox="0 0 90 90" width="90"  height="90" ><defs><style>.a,.b{fill:#fff;}.a{opacity:0.75;}</style></defs><title>icon-python-fill</title><path class="a" d="M54.31,10.11H34.5a8.16,8.16,0,0,0-8.15,8.15v8.13H45.29A1.75,1.75,0,0,1,47,28.44a1.82,1.82,0,0,1-1.83,1.45H15.54A5.08,5.08,0,0,0,10.47,35V56.83a5.07,5.07,0,0,0,5.07,5.07H26.41a5.29,5.29,0,0,0,1.13-.13V51.88c0-3.14,0-9,8-9,4.12,0,9.92,0,14.63,0h5.19c2.31,0,3.27-.68,3.27-4.91V11A9.71,9.71,0,0,0,54.31,10.11ZM38.56,22.45A2.46,2.46,0,1,1,41,20,2.46,2.46,0,0,1,38.56,22.45Z"/><path class="b" d="M74.71,28.6H63.84a4.65,4.65,0,0,0-1.24.18V38c0,2.21,0,8.91-7.27,8.91H50.14c-4.71,0-10.5,0-14.61,0-3.84,0-4,1.47-4,5v27a9.26,9.26,0,0,0,4.4,1H55.75a7.9,7.9,0,0,0,7.9-7.9V64.11H45a2,2,0,0,1-2-2.34,2.08,2.08,0,0,1,2.08-1.66H74.71a4.82,4.82,0,0,0,4.82-4.83V33.42A4.82,4.82,0,0,0,74.71,28.6ZM50.59,67.92a2.46,2.46,0,1,1-2.46,2.46A2.46,2.46,0,0,1,50.59,67.92Z"/></svg>