<svg width="47" height="35" viewBox="0 0 47 35" fill="none" xmlns="http://www.w3.org/2000/svg">
<path d="M44.666 21.667V28.333C44.666 29.3939 44.2446 30.4113 43.4944 31.1614C42.7443 31.9116 41.7269 32.333 40.666 32.333H6C4.93913 32.333 3.92172 31.9116 3.17157 31.1614C2.42143 30.4113 2 29.3939 2 28.333V8.333C2 6.9186 2.56187 5.56213 3.562 4.562C4.56213 3.56187 5.9186 3 7.333 3H15.333" stroke="url(#paint0_linear_66_25)" stroke-width="4" stroke-linecap="round" stroke-linejoin="round"/>
<path d="M21 20.9968V21.8949C21 22.0402 21.0293 22.184 21.0864 22.3181C21.1434 22.4523 21.227 22.5742 21.3323 22.6768C21.4376 22.7794 21.5627 22.8608 21.7003 22.9163C21.8379 22.9717 21.9854 23.0002 22.1342 23H36.8671C37.4927 23 38 22.5052 38 21.8949V20.9968C37.9964 19.77 37.4952 18.5944 36.6058 17.7269C35.7165 16.8594 34.5113 16.3705 33.2536 16.367H25.7464C24.4887 16.3705 23.2835 16.8594 22.3942 17.7269C21.5048 18.5944 21.0036 19.77 21 20.9968Z" stroke="#57F287" stroke-width="3" stroke-linecap="round" stroke-linejoin="round"/>
<path d="M25.5538 4.25137C24.9637 5.27314 24.8138 6.48175 25.1371 7.61133L25.1385 7.61C25.4741 8.72541 26.2466 9.66701 27.2887 10.231C28.3308 10.795 29.5587 10.9359 30.7065 10.6234C31.8544 10.3109 32.8299 9.56997 33.4219 8.56107C34.0139 7.55218 34.1748 6.35646 33.8697 5.23272C33.5463 4.10314 32.7762 3.14513 31.7287 2.56943C30.6812 1.99374 29.4422 1.84752 28.2842 2.16294C27.1261 2.47837 26.144 3.22959 25.5538 4.25137Z" stroke="#57F287" stroke-width="3" stroke-linecap="round" stroke-linejoin="round"/>
<defs>
<linearGradient id="paint0_linear_66_25" x1="23.333" y1="3" x2="23.333" y2="32.333" gradientUnits="userSpaceOnUse">
<stop offset="0.015625" stop-color="#22D3EE"/>
<stop offset="1" stop-color="#059669" stop-opacity="0.94"/>
</linearGradient>
</defs>
</svg>
