<svg width="4052" height="690" viewBox="0 0 4052 690" fill="none" xmlns="http://www.w3.org/2000/svg">
<g clip-path="url(#clip0_225_3)">
<path d="M874.849 31.0005L739.042 161.875V31.5295L496.288 149.142C464.367 167.58 425.042 167.542 393.196 149.029L224.296 50.9113C178.851 24.5022 122.752 24.3509 77.1557 50.5333C31.5592 76.7157 3.37776 125.227 3.22665 177.818L3 262.788V654.995L138.958 524.121V654.995L381.032 538.969C413.255 519.285 453.639 518.831 486.315 537.797L653.742 635.084C699.187 661.493 755.286 661.644 800.882 635.5C846.479 609.317 874.66 560.806 874.773 508.253L875 423.283L874.849 31.0005ZM728.464 451.052C728.464 474.967 703.003 490.231 681.923 478.934L562.511 415.084C479.364 370.616 379.181 372.127 297.394 419.051L196.983 476.668C175.904 488.757 149.611 473.532 149.611 449.238V236.757C149.611 212.388 176.017 197.162 197.097 209.366L296.487 266.944C378.727 314.586 479.856 316.097 563.493 270.949L681.81 207.061C702.889 195.689 728.464 210.952 728.464 234.906V451.052Z" fill="#57F287"/>
<path d="M1033.97 611V72L1242.64 71.23C1291.41 71.23 1336.07 81.4967 1376.62 102.03C1417.17 122.05 1450.28 152.85 1475.95 194.43C1501.62 236.01 1514.45 284.777 1514.45 340.73C1514.45 382.823 1507.01 421.323 1492.12 456.23C1477.23 490.623 1457.21 519.113 1432.06 541.7C1407.42 563.773 1378.67 580.97 1345.82 593.29C1313.48 605.097 1279.09 611 1242.64 611H1033.97ZM1147.16 500.12H1238.02C1285.76 500.12 1324.77 486.773 1355.06 460.08C1385.86 432.873 1401.26 393.09 1401.26 340.73C1401.26 288.37 1385.86 248.843 1355.06 222.15C1324.77 195.457 1285.76 182.11 1238.02 182.11L1147.16 182.88V500.12Z" fill="white"/>
<path d="M1575.91 611V229.85H1681.4V611H1575.91Z" fill="white"/>
<path d="M1909.59 624.86C1869.04 624.86 1832.59 615.363 1800.25 596.37C1768.43 576.863 1746.61 550.683 1734.8 517.83L1827.97 488.57C1842.86 521.937 1870.58 538.62 1911.13 538.62C1931.67 538.62 1947.84 534.77 1959.64 527.07C1971.45 518.857 1977.35 507.563 1977.35 493.19C1977.35 482.41 1971.96 474.453 1961.18 469.32C1950.4 463.673 1937.57 460.593 1922.68 460.08C1908.31 459.567 1890.34 458.027 1868.78 455.46C1847.74 452.38 1829.77 447.76 1814.88 441.6C1771.25 422.093 1749.43 389.753 1749.43 344.58C1749.43 309.16 1764.58 279.387 1794.86 255.26C1825.15 231.133 1862.11 219.07 1905.74 219.07C1946.81 219.07 1980.95 228.567 2008.15 247.56C2035.87 266.553 2054.1 291.963 2062.82 323.79L1971.19 349.2C1967.6 334.313 1960.16 322.507 1948.86 313.78C1937.57 304.54 1923.45 299.92 1906.51 299.92C1889.57 299.92 1875.46 304.027 1864.16 312.24C1853.38 320.453 1847.99 330.463 1847.99 342.27C1847.99 357.157 1856.72 367.423 1874.17 373.07C1891.63 378.203 1915.24 382.31 1945.01 385.39C1974.79 387.957 1997.63 392.577 2013.54 399.25C2059.23 418.243 2082.07 450.07 2082.07 494.73C2082.07 533.743 2065.9 565.313 2033.56 589.44C2001.22 613.053 1959.9 624.86 1909.59 624.86Z" fill="white"/>
<path d="M2318.62 621.78C2262.16 621.78 2213.65 602.273 2173.09 563.26C2133.05 523.733 2113.03 475.993 2113.03 420.04C2113.03 364.087 2133.05 316.347 2173.09 276.82C2213.65 236.78 2262.16 216.76 2318.62 216.76C2351.48 216.76 2382.53 224.203 2411.79 239.09C2441.05 253.977 2465.18 274.253 2484.17 299.92L2396.39 363.83C2377.91 335.597 2351.99 320.967 2318.62 319.94C2289.36 319.427 2265.24 328.923 2246.24 348.43C2227.76 367.423 2218.52 391.55 2218.52 420.81C2218.52 449.557 2227.76 473.427 2246.24 492.42C2265.24 510.9 2289.36 520.397 2318.62 520.91C2335.05 521.423 2350.19 517.573 2364.05 509.36C2377.91 501.147 2388.95 490.11 2397.16 476.25L2483.4 539.39C2464.41 565.057 2440.54 585.333 2411.79 600.22C2383.05 614.593 2351.99 621.78 2318.62 621.78Z" fill="white"/>
<path d="M2664.12 612.54C2623.05 612.54 2590.46 600.733 2566.33 577.12C2542.72 553.507 2530.91 520.653 2530.91 478.56V33.5H2638.71V458.54C2638.71 477.02 2643.84 490.88 2654.11 500.12C2664.38 508.847 2677.21 513.21 2692.61 513.21C2700.82 513.21 2708.01 512.183 2714.17 510.13L2724.95 604.07C2702.36 609.717 2682.09 612.54 2664.12 612.54Z" fill="white"/>
<path d="M3101.24 563.26C3061.2 602.273 3012.95 621.78 2956.48 621.78C2900.01 621.78 2851.5 602.273 2810.95 563.26C2770.91 523.733 2750.89 475.993 2750.89 420.04C2750.89 364.087 2770.91 316.347 2810.95 276.82C2851.5 236.78 2900.01 216.76 2956.48 216.76C3012.95 216.76 3061.2 236.78 3101.24 276.82C3141.79 316.347 3162.07 364.087 3162.07 420.04C3162.07 475.993 3141.79 523.733 3101.24 563.26ZM2956.48 520.91C2982.66 521.423 3004.73 512.183 3022.7 493.19C3041.18 473.683 3050.42 449.557 3050.42 420.81C3050.42 391.55 3041.18 367.423 3022.7 348.43C3004.73 328.923 2982.66 319.427 2956.48 319.94C2930.3 319.427 2907.97 328.923 2889.49 348.43C2871.52 367.423 2862.54 391.55 2862.54 420.81C2862.54 449.557 2871.52 473.683 2889.49 493.19C2907.97 512.183 2930.3 521.423 2956.48 520.91Z" fill="white"/>
<path d="M3383.6 615.62C3333.81 615.62 3293.77 599.193 3263.48 566.34C3233.71 533.487 3218.82 487.287 3218.82 427.74V229.85H3326.62V416.19C3326.62 450.583 3334.06 477.02 3348.95 495.5C3364.35 513.98 3384.63 523.22 3409.78 523.22C3436.99 523.22 3458.29 513.723 3473.69 494.73C3489.09 475.737 3496.79 448.787 3496.79 413.88V229.85H3604.59V611H3498.33V564.8H3496.79C3469.07 598.68 3431.34 615.62 3383.6 615.62Z" fill="white"/>
<path d="M3840.02 617.93C3789.2 617.93 3746.85 598.937 3712.97 560.95C3679.09 522.963 3662.15 475.993 3662.15 420.04C3662.15 364.087 3679.09 317.373 3712.97 279.9C3746.85 241.913 3789.2 222.92 3840.02 222.92C3893.41 222.92 3935.24 241.4 3965.53 278.36V33.5H4073.33V611H3965.53V562.49C3935.24 599.45 3893.41 617.93 3840.02 617.93ZM3797.67 493.96C3816.15 513.467 3839.25 523.22 3866.97 523.22C3894.69 523.22 3918.05 513.467 3937.04 493.96C3956.03 473.94 3965.53 449.3 3965.53 420.04C3965.53 390.78 3956.03 366.397 3937.04 346.89C3918.05 326.87 3894.69 316.86 3866.97 316.86C3839.25 316.86 3816.15 326.613 3797.67 346.12C3779.19 365.627 3769.95 390.267 3769.95 420.04C3769.95 449.813 3779.19 474.453 3797.67 493.96Z" fill="white"/>
</g>
<defs>
<clipPath id="clip0_225_3">
<rect width="4052" height="690" fill="white"/>
</clipPath>
</defs>
</svg>
