<svg xmlns:xlink="http://www.w3.org/1999/xlink" width="16" height="16" fill="none" xmlns="http://www.w3.org/2000/svg" style=""><path d="M15 6.675l-1.8-.6c-.2-.1-.3-.3-.2-.4l.9-1.7c.6-1.2-.7-2.5-1.9-1.9l-1.7.9c-.1.1-.3 0-.4-.2l-.6-1.8c-.4-1.3-2.2-1.3-2.6 0l-.6 1.8c-.1.2-.3.3-.4.2l-1.7-.9c-1.2-.6-2.5.7-1.9 1.9l.9 1.7c.1.1 0 .3-.2.4l-1.8.6c-1.3.4-1.3 2.3 0 2.7l1.8.6c.2 0 .3.2.2.3l-.9 1.7c-.6 1.2.7 2.5 1.9 1.9l1.7-.9c.2-.1.4 0 .4.2l.6 1.8c.4 1.3 2.3 1.3 2.7 0l.6-1.8c.1-.2.3-.3.4-.2l1.7.9c1.2.6 2.5-.7 1.9-1.9l-1-1.7c-.1-.2 0-.4.2-.4l1.8-.6c1.3-.4 1.3-2.2 0-2.6zm-7 3.7c-1.3 0-2.4-1.1-2.4-2.4 0-1.3 1.1-2.4 2.4-2.4 1.3 0 2.4 1.1 2.4 2.4 0 1.3-1.1 2.4-2.4 2.4z" fill="#4C4F5A" style=""></path></svg>