<svg xmlns:xlink="http://www.w3.org/1999/xlink" xmlns="http://www.w3.org/2000/svg" viewBox="0 0 90 90" width="90"  height="90" ><defs><style>.a{fill:#fff;}</style></defs><title>icon-node-fill</title><path class="a" d="M73.9,25.2,47.55,10.05a5.2,5.2,0,0,0-5.19,0L16.1,25.21a5.19,5.19,0,0,0-2.6,4.5V60.26A5.2,5.2,0,0,0,16,64.72l6.44,3.88a7.43,7.43,0,0,0,3.76.86,4.76,4.76,0,0,0,2.19-.68A4.41,4.41,0,0,0,30,67.14a4.46,4.46,0,0,0,.58-2.2V30.32h4.34V64.94a10.42,10.42,0,0,1-1.18,5.22,6.67,6.67,0,0,1-3.44,3L42.41,80a5.19,5.19,0,0,0,5.16,0L73.9,64.71a5.19,5.19,0,0,0,2.6-4.5V29.71A5.21,5.21,0,0,0,73.9,25.2Zm-21.21,34c-6.07,0-13.41-1.53-13.91-8.84l-.08-1.15h4.17l.17.86c.68,3.39,2.43,5.22,9.72,5.22,4,0,8.66-.55,8.66-4.84,0-2.32-1.5-3.58-10.05-4.42-7.39-.75-11.66-2.28-11.66-7.87,0-2.51,1.16-8.34,11.95-8.34,8.2,0,12.22,2.56,13,8.29l.18,1.22H60.74l-.22-.79c-1-3.55-3.28-4.81-8.86-4.81-7.5,0-7.5,3.23-7.5,4.29,0,2.61,2,3.15,9.77,4.15,8.26,1.08,11.95,2.5,11.95,8.06s-4.87,9-13.19,9Z"/></svg>