<svg width="88" height="88" viewBox="0 0 88 88" fill="none" xmlns="http://www.w3.org/2000/svg">
<g clip-path="url(#clip0_290_25)">
<g opacity="0.5">
<path d="M43.5646 16.3057C39.4984 19.1655 34.8898 22.4069 32.4205 27.7696C28.1315 37.1257 41.1968 47.3311 41.7552 47.761C41.885 47.8608 42.0404 47.9107 42.1953 47.9107C42.3597 47.9107 42.5244 47.8545 42.6581 47.7424C42.9175 47.5255 42.991 47.157 42.8353 46.8569C42.788 46.7658 38.0983 37.6564 38.2725 31.1214C38.3342 28.8452 41.5196 26.2631 44.8918 23.5294C47.9804 21.0255 51.4815 18.1877 53.5299 14.8679C58.0269 7.56047 53.0287 0.375033 52.9777 0.303189C52.7792 0.0244068 52.4127 -0.0764843 52.0994 0.0608444C51.7864 0.199032 51.613 0.537456 51.6845 0.872098C51.6946 0.919707 52.6666 5.67138 49.962 10.5669C48.8479 12.5899 46.3997 14.3117 43.5646 16.3057Z" fill="white"/>
<path d="M60.6962 19.528C60.9831 19.312 61.0673 18.9178 60.8939 18.6033C60.7201 18.2888 60.342 18.1501 60.0061 18.2776C59.3154 18.5402 43.0908 24.7943 43.0908 32.3508C43.0908 37.5598 45.3159 40.3116 46.9407 42.3211C47.578 43.1093 48.1282 43.79 48.3095 44.3711C48.82 46.0457 47.6106 49.0724 47.1021 50.0975C46.9554 50.3921 47.0273 50.7492 47.2767 50.9644C47.4114 51.0808 47.5797 51.1399 47.7481 51.1399C47.8915 51.1399 48.0355 51.0973 48.16 51.0106C48.4389 50.8168 54.9777 46.1937 53.805 40.6237C53.3681 38.5065 52.3278 36.9596 51.4098 35.5946C49.9877 33.4797 48.9605 31.952 50.5188 29.1305C52.3444 25.8394 60.6125 19.5906 60.6962 19.528Z" fill="white"/>
</g>
<path d="M18.4626 51.2595C18.1845 52.0923 18.3158 52.9183 18.8419 53.6491C20.6007 56.091 26.8307 57.4354 36.3849 57.4354C36.3854 57.4354 36.3858 57.4354 36.3861 57.4354C37.6807 57.4354 39.0474 57.4099 40.4473 57.3597C55.7228 56.813 61.3885 52.0541 61.6223 51.8518C61.877 51.6313 61.945 51.2642 61.7867 50.9672C61.6283 50.6703 61.2868 50.5212 60.9604 50.6111C55.5805 52.0799 45.5349 52.6014 38.567 52.6014C30.7702 52.6014 26.7996 52.0397 25.8274 51.6249C26.3262 50.94 29.4028 49.717 33.2152 48.9671C33.5795 48.8956 33.83 48.559 33.7939 48.1895C33.7578 47.82 33.4474 47.5381 33.0759 47.5381C30.8412 47.5381 19.6341 47.7175 18.4626 51.2595Z" fill="white"/>
<path d="M69.5774 46.358C66.4268 46.358 63.4391 47.9372 63.3133 48.004C63.0219 48.1601 62.8741 48.4942 62.954 48.8153C63.0343 49.1358 63.3225 49.3612 63.6531 49.3615C63.7199 49.3615 70.3737 49.416 70.9763 53.2177C71.5102 56.4974 64.6807 61.8115 62.0041 63.5825C61.715 63.7738 61.6028 64.1433 61.737 64.463C61.8513 64.7351 62.1161 64.9052 62.4018 64.9052C62.4516 64.9052 62.5022 64.9001 62.5524 64.8894C63.1876 64.7535 78.091 61.4693 76.5152 52.7921C75.5539 47.4743 72.2116 46.358 69.5774 46.358Z" fill="white"/>
<path d="M59.3564 62.5206C59.4083 62.2427 59.2926 61.96 59.0613 61.7976L55.4878 59.2945C55.3135 59.1725 55.0934 59.1342 54.8888 59.1883C54.8515 59.1978 51.1146 60.1802 45.6892 60.7826C43.5359 61.0241 41.1242 61.1517 38.7141 61.1517C33.2901 61.1517 29.7436 60.5143 29.2271 60.0468C29.1587 59.9155 29.1804 59.8559 29.1926 59.8227C29.2864 59.5618 29.7893 59.2517 30.1135 59.129C30.4715 58.9965 30.6645 58.6077 30.5531 58.2427C30.4421 57.8771 30.0655 57.6621 29.6939 57.7513C26.1093 58.6163 24.3565 59.826 24.484 61.3466C24.7106 64.0426 30.9551 65.4264 36.2343 65.7921C36.9935 65.844 37.8145 65.8703 38.6741 65.8703C38.6746 65.8703 38.6749 65.8703 38.6755 65.8703C47.4538 65.8703 58.7076 63.116 58.82 63.088C59.0948 63.021 59.3043 62.7991 59.3564 62.5206Z" fill="white"/>
<path d="M32.4163 68.3067C32.687 68.1307 32.807 67.796 32.7109 67.4879C32.6152 67.1797 32.327 66.9772 32.0031 66.9815C31.5227 66.9942 27.3025 67.1847 27.0071 69.8716C26.9177 70.6746 27.1477 71.4083 27.6909 72.052C29.2062 73.8478 33.2965 74.9151 40.1934 75.3149C41.0093 75.3639 41.838 75.3885 42.657 75.3885C51.4253 75.3885 57.3306 72.6431 57.5779 72.5262C57.8177 72.4128 57.9758 72.1771 57.9899 71.9125C58.004 71.6478 57.8718 71.3967 57.6456 71.2583L53.1296 68.5014C52.9728 68.4058 52.7853 68.3742 52.6066 68.4108C52.578 68.4168 49.7106 69.0115 45.3833 69.599C44.5645 69.7104 43.5391 69.7669 42.336 69.7669C38.0133 69.7669 33.2052 69.0607 32.2831 68.5982C32.2697 68.5119 32.2867 68.4022 32.4163 68.3067Z" fill="white"/>
<path d="M38.5702 83.6777C58.6546 83.6607 69.4341 80.0889 71.5107 77.8413C72.2458 77.0462 72.3252 76.2934 72.2628 75.8017C72.1085 74.5917 71.0062 73.8509 70.8813 73.7704C70.5798 73.5766 70.1752 73.6273 69.9401 73.8985C69.7055 74.1697 69.7 74.5661 69.9354 74.8371C70.0621 75 70.1353 75.2728 69.7649 75.6435C68.9348 76.4189 60.5619 78.7724 46.6209 79.4795C44.7111 79.5786 42.7081 79.6292 40.6678 79.6295C28.1856 79.6295 19.0506 77.9197 17.8515 76.9235C18.3136 76.2594 21.5449 75.1984 24.9812 74.5982C25.3684 74.5306 25.63 74.1658 25.57 73.7773C25.5101 73.389 25.152 73.1218 24.7607 73.1725C24.6637 73.1857 24.3348 73.2053 23.9539 73.2287C18.2841 73.5748 11.732 74.3464 11.3901 77.2678C11.2863 78.1579 11.5508 78.9661 12.1766 79.6694C13.7079 81.3899 18.1091 83.6774 38.5695 83.6774C38.5699 83.6777 38.5699 83.6777 38.5702 83.6777Z" fill="white"/>
<path d="M75.4556 78.4747C75.1716 78.3434 74.8361 78.4097 74.6244 78.6383C74.595 78.6701 71.5753 81.8276 62.4961 83.6818C59.0203 84.3783 52.4959 84.7315 43.1041 84.7315C33.6948 84.7315 24.7412 84.3613 24.652 84.3575C24.278 84.3393 23.9582 84.6112 23.9073 84.9793C23.8562 85.3471 24.0934 85.694 24.4545 85.7799C24.5477 85.8019 33.9309 88.0002 46.7604 88.0002C52.9137 88.0002 58.9015 87.5006 64.5578 86.5143C75.1042 84.6655 75.8426 79.436 75.8689 79.2143C75.9057 78.9044 75.739 78.606 75.4556 78.4747Z" fill="white"/>
</g>
<defs>
<clipPath id="clip0_290_25">
<rect width="88" height="88" fill="white"/>
</clipPath>
</defs>
</svg>
