<svg xmlns:xlink="http://www.w3.org/1999/xlink" xmlns="http://www.w3.org/2000/svg" viewBox="0 0 90 90" width="90"  height="90" ><defs><style>.a{fill:#fff;}</style></defs><title>icon-php-fill</title><path class="a" d="M7.26,32h13.3c3.9,0,6.73,1.16,8.49,3.37s2.33,5.25,1.73,9.08a17.09,17.09,0,0,1-1.54,5.16,15.27,15.27,0,0,1-3.17,4.57,11.1,11.1,0,0,1-5.31,3.27,24.17,24.17,0,0,1-5.86.7H9L7.06,67.53H.17L7.26,32h0m5.81,5.66-3,14.88a3,3,0,0,0,.6,0h.69a26.25,26.25,0,0,0,7.94-.94c2.12-.7,3.54-3.11,4.27-7.25.59-3.47,0-5.47-1.79-6a22,22,0,0,0-6.6-.74c-.39,0-.77,0-1.14,0H13l.05,0"/><path class="a" d="M38.64,22.47h6.85L43.55,32H49.7c3.38.07,5.89.76,7.55,2.08s2.18,3.84,1.48,7.55L55.41,58.1H48.46l3.18-15.78c.33-1.65.23-2.83-.3-3.52s-1.67-1-3.42-1l-5.51,0L38.34,58.1H31.49l7.15-35.63h0"/><path class="a" d="M66.09,32H79.38c3.91,0,6.74,1.16,8.49,3.37s2.33,5.25,1.74,9.08a17.68,17.68,0,0,1-1.54,5.16,15.3,15.3,0,0,1-3.18,4.57,11,11,0,0,1-5.31,3.27,24,24,0,0,1-5.85.7h-6l-1.88,9.43H59L66.09,32h0m5.8,5.66-3,14.88a3,3,0,0,0,.6,0h.69a26.21,26.21,0,0,0,7.94-.94c2.12-.7,3.54-3.11,4.27-7.25q.9-5.2-1.79-6A22,22,0,0,0,74,37.61c-.4,0-.78,0-1.15,0h-1l0,0"/></svg>